<svg width="261" height="261" viewBox="0 0 261 261" fill="none" xmlns="http://www.w3.org/2000/svg">
<rect x="0.173096" y="0.968872" width="260" height="260" rx="30" fill="#1a1c21"/>
<path d="M166.79 125.362L151.941 114.859L160.452 102.545C162.142 100.131 164.194 97.7165 166.608 95.3021C169.023 92.8876 171.437 90.6542 173.852 88.602C176.387 86.429 178.62 84.6181 180.552 83.1695L180.009 82.0829C177.594 81.9622 174.757 81.7811 171.498 81.5397C168.359 81.1775 165.16 80.6946 161.9 80.091C158.641 79.4874 155.683 78.7027 153.027 77.7369L139.084 72.6666L145.241 55.4636L159.184 60.534C161.961 61.4998 164.798 62.8277 167.695 64.5178C170.592 66.2079 173.369 68.0188 176.025 69.9503C178.801 71.7612 181.095 73.4513 182.906 75.0207L183.811 74.2963C183.208 71.8819 182.423 69.1053 181.457 65.9665C180.612 62.707 179.888 59.3871 179.284 56.0069C178.681 52.5059 178.379 49.2464 178.379 46.2284V31.1984H196.487V46.2284C196.487 49.2464 196.185 52.5059 195.582 56.0069C194.978 59.3871 194.254 62.707 193.409 65.9665C192.564 69.1053 191.719 71.8819 190.874 74.2963L191.779 75.0207C193.711 73.4513 196.004 71.7612 198.66 69.9503C201.316 68.0188 204.093 66.2079 206.99 64.5178C209.887 62.8277 212.724 61.4998 215.501 60.534L229.626 55.4636L235.782 72.6666L221.658 77.7369C219.123 78.7027 216.225 79.4874 212.966 80.091C209.706 80.6946 206.447 81.1775 203.187 81.5397C200.049 81.7811 197.272 81.9622 194.858 82.0829L194.314 83.3505C196.246 84.7992 198.419 86.61 200.833 88.783C203.368 90.8353 205.843 93.0687 208.258 95.4831C210.672 97.7769 212.664 100.131 214.233 102.545L222.926 114.859L208.077 125.362L199.204 112.867C197.634 110.573 196.125 107.857 194.676 104.718C193.228 101.58 191.9 98.5012 190.693 95.4831C189.606 92.3444 188.701 89.6281 187.976 87.3344H186.709C186.105 89.6281 185.2 92.3444 183.993 95.4831C182.785 98.5012 181.457 101.58 180.009 104.718C178.56 107.857 176.991 110.573 175.3 112.867L166.79 125.362Z" fill="#edfb55"/>
<path d="M27.5981 225.099V69.5115H52.5348V154.552H72.1431L101.982 107.876H129.902L93.4565 164.356L130.542 225.099H102.195L72.1431 175.652H52.5348V225.099H27.5981Z" fill="white"/>
</svg>
