<svg width="41" height="41" viewBox="0 0 41 41" fill="none" xmlns="http://www.w3.org/2000/svg">
<g clip-path="url(#clip0_224_186)">
<path fill-rule="evenodd" clip-rule="evenodd" d="M20.3558 0.364258C9.09958 0.364258 0 9.53092 0 20.8713C0 29.9363 5.83042 37.6097 13.9187 40.3255C14.93 40.5297 15.3004 39.8843 15.3004 39.3413C15.3004 38.8659 15.2671 37.2363 15.2671 35.5384C9.60458 36.7609 8.42542 33.0938 8.42542 33.0938C7.51542 30.7172 6.16708 30.1063 6.16708 30.1063C4.31375 28.8501 6.30208 28.8501 6.30208 28.8501C8.35792 28.9859 9.43667 30.9551 9.43667 30.9551C11.2563 34.0784 14.1883 33.1959 15.3679 32.6526C15.5363 31.3284 16.0758 30.4118 16.6488 29.9026C12.1325 29.4272 7.38083 27.6618 7.38083 19.7847C7.38083 17.5438 8.18917 15.7105 9.47 14.2847C9.26792 13.7755 8.56 11.6701 9.6725 8.85217C9.6725 8.85217 11.3913 8.30884 15.2667 10.9572C16.9259 10.5083 18.637 10.2799 20.3558 10.278C22.0746 10.278 23.8267 10.5159 25.4446 10.9572C29.3204 8.30884 31.0392 8.85217 31.0392 8.85217C32.1517 11.6701 31.4433 13.7755 31.2412 14.2847C32.5558 15.7105 33.3308 17.5438 33.3308 19.7847C33.3308 27.6618 28.5792 29.393 24.0292 29.9026C24.7708 30.5476 25.4108 31.7697 25.4108 33.7051C25.4108 36.4551 25.3775 38.6622 25.3775 39.3409C25.3775 39.8843 25.7483 40.5297 26.7592 40.3259C34.8475 37.6093 40.6779 29.9363 40.6779 20.8713C40.7113 9.53092 31.5783 0.364258 20.3558 0.364258Z" fill="#24292F"/>
</g>
<defs>
<clipPath id="clip0_224_186">
<rect width="40.8333" height="40" fill="white" transform="translate(0 0.364258)"/>
</clipPath>
</defs>
</svg>
