<svg width="32" height="33" viewBox="0 0 32 33" fill="none" xmlns="http://www.w3.org/2000/svg">
<g clip-path="url(#clip0_212_96)">
<path d="M16 32.854C24.8366 32.854 32 25.6906 32 16.854C32 8.01745 24.8366 0.854004 16 0.854004C7.16344 0.854004 0 8.01745 0 16.854C0 25.6906 7.16344 32.854 16 32.854Z" fill="black"/>
<path d="M11.6987 24.5391V12.607H7.73274V24.5391H11.6987ZM9.71626 10.9769C11.0993 10.9769 11.9601 10.0606 11.9601 8.91564C11.9343 7.74481 11.0993 6.854 9.74251 6.854C8.3859 6.854 7.49878 7.74483 7.49878 8.91564C7.49878 10.0607 8.35942 10.9769 9.69039 10.9769H9.71626Z" fill="white"/>
<path d="M13.8938 24.5394H17.8598V17.8759C17.8598 17.5193 17.8856 17.163 17.9903 16.9081C18.277 16.1956 18.9296 15.4576 20.0251 15.4576C21.4603 15.4576 22.0344 16.5518 22.0344 18.1559V24.5393H26.0001V17.6975C26.0001 14.0325 24.0435 12.3271 21.4341 12.3271C19.2946 12.3271 18.3553 13.523 17.8334 14.3376H17.8599V12.6071H13.8939C13.9459 13.7267 13.8939 24.5392 13.8939 24.5392L13.8938 24.5394Z" fill="white"/>
</g>
<defs>
<clipPath id="clip0_212_96">
<rect width="32" height="32" fill="white" transform="translate(0 0.854004)"/>
</clipPath>
</defs>
</svg>
