<?xml version="1.0" encoding="utf-8"?>
<!-- Generator: Adobe Illustrator 16.0.0, SVG Export Plug-In . SVG Version: 6.00 Build 0)  -->
<!DOCTYPE svg PUBLIC "-//W3C//DTD SVG 1.1//EN" "http://www.w3.org/Graphics/SVG/1.1/DTD/svg11.dtd">
<svg version="1.1" id="Layer_1" xmlns="http://www.w3.org/2000/svg" xmlns:xlink="http://www.w3.org/1999/xlink" x="0px" y="0px"
	 width="595.281px" height="399.265px" viewBox="0 0 595.281 399.265" enable-background="new 0 0 595.281 399.265"
	 xml:space="preserve">
<path fill="#31459C" d="M0,0v376.43c4.662,0,7.125,1.925,9.104,3.471c1.695,1.324,2.815,2.199,5.412,2.199s3.716-0.875,5.412-2.199
	c1.979-1.546,4.443-3.471,9.105-3.471c4.662,0,7.125,1.925,9.104,3.471c1.695,1.324,2.814,2.199,5.41,2.199
	c2.596,0,3.716-0.875,5.412-2.199c1.979-1.546,4.443-3.471,9.104-3.471c4.662,0,7.126,1.925,9.105,3.471
	c1.695,1.324,2.815,2.199,5.412,2.199c2.596,0,3.715-0.875,5.41-2.199c1.979-1.546,4.443-3.471,9.104-3.471
	c4.662,0,7.126,1.925,9.105,3.471c1.695,1.324,2.815,2.199,5.412,2.199c2.596,0,3.716-0.875,5.412-2.199
	c1.979-1.546,4.443-3.471,9.104-3.471s7.125,1.925,9.104,3.471c1.695,1.324,2.815,2.199,5.412,2.199
	c2.597,0,3.717-0.875,5.413-2.199c1.979-1.546,4.443-3.471,9.105-3.471c4.662,0,7.125,1.925,9.104,3.471
	c1.695,1.324,2.815,2.199,5.412,2.199c2.598,0,3.718-0.875,5.414-2.199c1.98-1.547,4.444-3.471,9.106-3.471
	c4.662,0,7.125,1.925,9.104,3.471c1.695,1.324,2.815,2.199,5.412,2.199c2.597,0,3.717-0.875,5.413-2.199
	c1.98-1.546,4.444-3.471,9.106-3.471c4.662,0,7.125,1.925,9.105,3.471c1.695,1.324,2.815,2.199,5.412,2.199s3.717-0.875,5.412-2.199
	c1.979-1.546,4.443-3.471,9.106-3.471c4.662,0,7.126,1.925,9.106,3.471c1.696,1.324,2.816,2.199,5.413,2.199
	c2.597,0,3.717-0.875,5.412-2.199c1.979-1.546,4.443-3.471,9.105-3.471s7.126,1.925,9.106,3.471
	c1.696,1.324,2.816,2.199,5.413,2.199c2.598,0,3.718-0.875,5.414-2.199c1.98-1.547,4.444-3.471,9.107-3.471s7.126,1.925,9.105,3.471
	c1.696,1.324,2.816,2.199,5.413,2.199c2.598,0,3.718-0.875,5.413-2.199c1.979-1.547,4.443-3.471,9.105-3.471
	s7.127,1.925,9.106,3.471c1.695,1.324,2.816,2.199,5.413,2.199s3.717-0.875,5.412-2.199c1.979-1.546,4.443-3.471,9.106-3.471
	c4.662,0,7.127,1.925,9.106,3.471c1.695,1.324,2.816,2.199,5.413,2.199c2.596,0,3.716-0.875,5.411-2.199
	c1.979-1.546,4.442-3.471,9.104-3.471c4.662,0,7.126,1.925,9.105,3.471c1.695,1.324,2.815,2.199,5.412,2.199
	c2.598,0,3.719-0.875,5.414-2.199c1.98-1.547,4.444-3.471,9.106-3.471s7.126,1.925,9.105,3.471c1.695,1.324,2.815,2.199,5.412,2.199
	c2.598,0,3.718-0.875,5.413-2.199c1.979-1.547,4.443-3.471,9.105-3.471c4.663,0,7.127,1.925,9.107,3.471
	c1.695,1.324,2.816,2.199,5.413,2.199c2.599,0,3.719-0.875,5.415-2.199c1.98-1.547,4.444-3.471,9.107-3.471
	c4.662,0,7.127,1.925,9.106,3.471c1.695,1.324,2.815,2.199,5.413,2.199s3.719-0.875,5.414-2.199c1.98-1.547,4.444-3.471,9.107-3.471
	s7.127,1.924,9.107,3.471c1.696,1.324,2.816,2.199,5.414,2.199c2.599,0,3.719-0.875,5.415-2.199c1.98-1.547,4.445-3.471,9.108-3.471
	c4.662,0,7.127,1.925,9.106,3.471c1.695,1.324,2.815,2.199,5.413,2.199c2.599,0,3.72-0.875,5.417-2.2
	c1.979-1.546,4.444-3.47,9.107-3.47c4.662,0,7.126,1.924,9.106,3.471c1.695,1.324,2.816,2.199,5.414,2.199
	c2.601,0,3.722-0.875,5.419-2.2c1.98-1.546,4.446-3.47,9.11-3.47s7.13,1.924,9.11,3.47c1.697,1.325,2.819,2.2,5.42,2.2V0H0z"/>
</svg>
