<svg width="32" height="33" viewBox="0 0 32 33" fill="none" xmlns="http://www.w3.org/2000/svg">
<path d="M16 32.854C24.8366 32.854 32 25.6906 32 16.854C32 8.01745 24.8366 0.854004 16 0.854004C7.16344 0.854004 0 8.01745 0 16.854C0 25.6906 7.16344 32.854 16 32.854Z" fill="black"/>
<path d="M6.05875 16.6934L10.0923 18.199L11.6534 23.2192C11.6762 23.2936 11.717 23.3613 11.7721 23.4163C11.8273 23.4713 11.8951 23.5119 11.9696 23.5345C12.0442 23.5571 12.1231 23.561 12.1995 23.5458C12.2759 23.5307 12.3474 23.497 12.4077 23.4477L14.6553 21.6153C14.77 21.5219 14.9123 21.469 15.0602 21.4648C15.2081 21.4607 15.3531 21.5056 15.4728 21.5925L19.5269 24.5357C19.5911 24.5823 19.666 24.612 19.7446 24.6223C19.8233 24.6325 19.9032 24.6229 19.9772 24.5944C20.0512 24.5658 20.1168 24.5192 20.1682 24.4588C20.2196 24.3984 20.255 24.3261 20.2713 24.2485L23.2428 9.96201C23.2601 9.8784 23.2546 9.79167 23.2268 9.71093C23.199 9.63019 23.15 9.55842 23.0849 9.50316C23.0198 9.44789 22.9411 9.41118 22.8569 9.39686C22.7727 9.38255 22.6863 9.39117 22.6066 9.42182L6.05418 15.8043C5.96412 15.839 5.88674 15.9002 5.83232 15.9799C5.7779 16.0596 5.74902 16.1539 5.74952 16.2504C5.75001 16.3469 5.77986 16.441 5.8351 16.5201C5.89034 16.5993 5.96834 16.6597 6.05875 16.6934ZM11.4005 17.3974L19.2816 12.5433C19.3106 12.5247 19.3455 12.5176 19.3794 12.5236C19.4134 12.5295 19.4438 12.548 19.4648 12.5753C19.4857 12.6027 19.4956 12.6369 19.4924 12.6712C19.4892 12.7055 19.4733 12.7374 19.4477 12.7605L12.9433 18.807C12.715 19.0195 12.5675 19.3047 12.5258 19.6138L12.3018 21.2557C12.2959 21.3023 12.274 21.3454 12.2399 21.3776C12.2058 21.4099 12.1616 21.4294 12.1148 21.4328C12.068 21.4362 12.0214 21.4233 11.983 21.3963C11.9446 21.3693 11.9167 21.3299 11.9041 21.2847L11.0523 18.2904C11.0051 18.1239 11.0136 17.9466 11.0764 17.7854C11.1393 17.6243 11.2531 17.488 11.4005 17.3974Z" fill="white"/>
</svg>
