<?xml version="1.0" standalone="no"?>
<!DOCTYPE svg PUBLIC "-//W3C//DTD SVG 20010904//EN"
 "http://www.w3.org/TR/2001/REC-SVG-20010904/DTD/svg10.dtd">
<svg version="1.0" xmlns="http://www.w3.org/2000/svg"
 width="700.000000pt" height="700.000000pt" viewBox="0 0 700.000000 700.000000"
 preserveAspectRatio="xMidYMid meet">
<metadata>
Created by potrace 1.14, written by Peter Selinger 2001-2017
</metadata>
<g transform="translate(0.000000,700.000000) scale(0.100000,-0.100000)"
fill="#000000" stroke="none">
<path d="M634 6955 c-289 -63 -520 -288 -606 -590 l-23 -80 -3 -2715 c-2
-1849 0 -2750 8 -2825 16 -175 63 -297 163 -430 121 -161 309 -272 517 -305
43 -6 983 -10 2810 -10 2675 0 2747 1 2839 20 238 49 444 207 555 427 14 28
38 91 53 140 l28 88 0 2795 c0 3034 3 2849 -56 2998 -90 226 -268 390 -514
473 l-70 24 -2820 2 c-2315 1 -2831 -1 -2881 -12z m4633 -1087 c-5 -262 -8
-306 -30 -413 -38 -182 -56 -250 -88 -352 -28 -85 -30 -113 -11 -113 4 0 48
30 97 66 141 105 292 202 388 251 91 45 526 207 535 198 13 -13 162 -449 155
-455 -16 -14 -419 -153 -510 -176 -114 -29 -328 -60 -475 -69 -91 -6 -107 -9
-111 -25 -3 -12 5 -25 23 -38 69 -51 322 -276 380 -338 72 -77 354 -468 348
-484 -5 -15 -381 -279 -390 -274 -12 8 -240 334 -285 410 -58 96 -155 318
-208 474 -54 163 -63 164 -114 15 -91 -267 -177 -437 -353 -695 -77 -113 -142
-206 -143 -208 -1 -1 -91 59 -199 135 -116 82 -194 143 -191 151 2 6 64 99
137 205 112 162 154 213 268 327 74 74 182 173 240 219 58 46 105 91 105 100
0 13 -18 17 -100 24 -154 12 -390 47 -490 72 -77 20 -468 155 -501 174 -8 4
14 77 68 231 45 124 82 227 84 228 6 8 409 -144 510 -193 105 -51 344 -203
448 -286 83 -67 87 -56 37 119 -84 299 -111 493 -111 825 l0 187 246 0 246 0
-5 -292z m-3857 -1873 l0 -1145 262 2 263 3 386 605 c213 333 394 615 403 628
l17 22 369 0 c204 0 370 -2 370 -5 0 -2 -218 -343 -485 -756 -267 -414 -484
-758 -481 -764 2 -7 217 -360 477 -786 260 -426 481 -789 492 -806 l19 -33
-380 0 -379 0 -404 665 -404 665 -262 0 -263 0 0 -665 0 -665 -335 0 -335 0 0
2090 0 2090 335 0 335 0 0 -1145z"/>
</g>
</svg>
