<?xml version="1.0" encoding="utf-8"?>
<!-- Generator: Adobe Illustrator 16.0.0, SVG Export Plug-In . SVG Version: 6.00 Build 0)  -->
<!DOCTYPE svg PUBLIC "-//W3C//DTD SVG 1.1//EN" "http://www.w3.org/Graphics/SVG/1.1/DTD/svg11.dtd">
<svg version="1.1" id="Layer_1" xmlns="http://www.w3.org/2000/svg" xmlns:xlink="http://www.w3.org/1999/xlink" x="0px" y="0px"
	 width="145px" height="44px" viewBox="0 0 145 44" enable-background="new 0 0 145 44" xml:space="preserve">
<path fill="#EDFB55" d="M133.254,15.208l-2.316-1.639l1.328-1.921c0.264-0.376,0.584-0.753,0.961-1.13
	c0.377-0.377,0.752-0.725,1.129-1.045c0.396-0.339,0.744-0.622,1.045-0.848l-0.084-0.169c-0.377-0.019-0.819-0.047-1.328-0.084
	c-0.489-0.057-0.988-0.132-1.496-0.226c-0.51-0.094-0.971-0.217-1.385-0.367l-2.176-0.791l0.961-2.684l2.176,0.791
	c0.433,0.151,0.875,0.358,1.328,0.622c0.451,0.264,0.885,0.546,1.299,0.848c0.433,0.283,0.791,0.546,1.074,0.791l0.141-0.113
	c-0.094-0.377-0.217-0.81-0.367-1.3c-0.132-0.508-0.245-1.026-0.339-1.554c-0.095-0.546-0.142-1.055-0.142-1.525V0.518h2.824v2.345
	c0,0.471-0.047,0.979-0.141,1.525c-0.094,0.527-0.207,1.045-0.339,1.554c-0.132,0.49-0.265,0.923-0.396,1.3l0.141,0.113
	c0.302-0.245,0.66-0.508,1.074-0.791c0.414-0.301,0.848-0.584,1.299-0.848c0.453-0.264,0.895-0.471,1.328-0.622l2.203-0.791
	l0.961,2.684l-2.203,0.791c-0.396,0.15-0.848,0.273-1.356,0.367c-0.508,0.094-1.017,0.169-1.524,0.226
	c-0.49,0.038-0.924,0.066-1.301,0.084l-0.085,0.198c0.302,0.226,0.642,0.509,1.017,0.848c0.396,0.32,0.783,0.668,1.16,1.045
	c0.375,0.358,0.687,0.725,0.932,1.102l1.355,1.921l-2.316,1.639l-1.385-1.949c-0.244-0.358-0.479-0.782-0.705-1.271
	c-0.227-0.49-0.434-0.97-0.623-1.44c-0.168-0.49-0.31-0.914-0.422-1.271h-0.199c-0.094,0.358-0.235,0.782-0.424,1.271
	c-0.188,0.471-0.395,0.951-0.621,1.44c-0.226,0.49-0.471,0.914-0.734,1.271L133.254,15.208z"/>
<path fill="#FFFFFF" d="M0.76,30.768V6.495h3.89v13.267h3.059l4.655-7.282h4.356l-5.686,8.812l5.785,9.477h-4.422l-4.688-7.715H4.65
	v7.715H0.76z"/>
<path fill="#FFFFFF" d="M29.575,31.066c-1.53,0-2.86-0.288-3.99-0.865c-1.108-0.576-1.973-1.396-2.593-2.46
	c-0.621-1.086-0.931-2.36-0.931-3.823v-4.589c0-1.463,0.311-2.727,0.931-3.791c0.621-1.086,1.485-1.917,2.593-2.494
	c1.13-0.576,2.46-0.865,3.99-0.865c1.551,0,2.881,0.289,3.99,0.865s1.973,1.407,2.594,2.494c0.621,1.064,0.931,2.316,0.931,3.757
	v4.622c0,1.463-0.31,2.737-0.931,3.823c-0.621,1.063-1.485,1.884-2.594,2.46C32.456,30.778,31.126,31.066,29.575,31.066z
	 M29.575,27.675c1.152,0,2.05-0.321,2.693-0.964c0.643-0.643,0.964-1.574,0.964-2.793v-4.589c0-1.241-0.321-2.172-0.964-2.793
	c-0.643-0.643-1.541-0.964-2.693-0.964c-1.131,0-2.028,0.321-2.693,0.964c-0.643,0.621-0.964,1.552-0.964,2.793v4.589
	c0,1.219,0.321,2.15,0.964,2.793C27.546,27.354,28.444,27.675,29.575,27.675z"/>
<path fill="#FFFFFF" d="M51.174,31.066c-1.529,0-2.859-0.288-3.99-0.865c-1.108-0.576-1.973-1.396-2.594-2.46
	c-0.621-1.086-0.931-2.36-0.931-3.823v-4.589c0-1.463,0.31-2.727,0.931-3.791c0.621-1.086,1.485-1.917,2.594-2.494
	c1.13-0.576,2.46-0.865,3.99-0.865c1.552,0,2.882,0.289,3.99,0.865s1.973,1.407,2.593,2.494c0.621,1.064,0.931,2.316,0.931,3.757
	v4.622c0,1.463-0.31,2.737-0.931,3.823c-0.621,1.063-1.485,1.884-2.593,2.46C54.056,30.778,52.726,31.066,51.174,31.066z
	 M51.174,27.675c1.153,0,2.051-0.321,2.693-0.964c0.643-0.643,0.964-1.574,0.964-2.793v-4.589c0-1.241-0.321-2.172-0.964-2.793
	c-0.643-0.643-1.541-0.964-2.693-0.964c-1.13,0-2.028,0.321-2.693,0.964c-0.643,0.621-0.964,1.552-0.964,2.793v4.589
	c0,1.219,0.321,2.15,0.964,2.793C49.146,27.354,50.043,27.675,51.174,27.675z"/>
<path fill="#FFFFFF" d="M65.558,30.768V6.495h3.891v13.267h3.059l4.654-7.282h4.355l-5.686,8.812l5.786,9.477h-4.423l-4.688-7.715
	h-3.059v7.715H65.558z"/>
<path fill="#FFFFFF" d="M93.708,31.066c-1.353,0-2.538-0.211-3.558-0.632c-0.998-0.443-1.795-1.042-2.395-1.796
	c-0.576-0.775-0.897-1.684-0.964-2.727h3.89c0.067,0.6,0.367,1.076,0.898,1.43c0.555,0.355,1.264,0.533,2.128,0.533h1.43
	c1.063,0,1.862-0.211,2.394-0.633c0.533-0.421,0.799-0.986,0.799-1.695c0-0.665-0.244-1.186-0.732-1.563
	c-0.465-0.399-1.174-0.665-2.127-0.799l-2.328-0.332c-2.018-0.311-3.502-0.864-4.455-1.663c-0.932-0.82-1.396-2.039-1.396-3.657
	c0-1.707,0.555-3.026,1.662-3.957c1.131-0.931,2.793-1.396,4.988-1.396h1.263c1.974,0,3.547,0.443,4.722,1.33
	c1.176,0.887,1.829,2.083,1.963,3.591h-3.892c-0.066-0.51-0.343-0.919-0.831-1.23c-0.488-0.333-1.142-0.499-1.962-0.499h-1.263
	c-0.998,0-1.729,0.188-2.195,0.565c-0.443,0.354-0.664,0.887-0.664,1.596c0,0.643,0.199,1.13,0.598,1.463
	c0.398,0.31,1.031,0.532,1.896,0.665l2.394,0.333c2.105,0.31,3.658,0.897,4.655,1.762c0.998,0.842,1.496,2.083,1.496,3.724
	c0,1.773-0.587,3.147-1.763,4.123c-1.152,0.975-2.893,1.463-5.22,1.463H93.708z"/>
<path fill="#FFFFFF" d="M114.044,31.1c-1.884,0-3.38-0.488-4.489-1.463c-1.086-0.998-1.629-2.35-1.629-4.057
	c0-1.773,0.588-3.147,1.762-4.123c1.197-0.976,2.85-1.463,4.955-1.463h4.821v-1.629c0-0.931-0.299-1.663-0.897-2.194
	c-0.599-0.532-1.43-0.798-2.494-0.798c-0.953,0-1.752,0.211-2.395,0.632c-0.619,0.399-0.986,0.953-1.097,1.663h-3.79
	c0.199-1.685,0.964-3.026,2.294-4.023c1.353-0.998,3.048-1.497,5.087-1.497c2.217,0,3.969,0.554,5.254,1.663
	s1.928,2.616,1.928,4.522v12.436h-3.789v-3.259h-0.633l0.666-0.798c0,1.352-0.511,2.427-1.531,3.225
	C117.048,30.712,115.707,31.1,114.044,31.1z M115.273,28.174c1.22,0,2.218-0.311,2.994-0.932c0.797-0.643,1.196-1.451,1.196-2.427
	v-2.328h-4.755c-0.887,0-1.596,0.254-2.128,0.764c-0.532,0.488-0.798,1.153-0.798,1.996c0,0.908,0.31,1.629,0.931,2.16
	C113.335,27.919,114.188,28.174,115.273,28.174z"/>
<path fill="#EDFB55" d="M125.6,40.789c-0.997-0.183-1.865-1.181-2.567-1.839c-1.06-0.994-2.214-2.092-3.699-2.355
	c-2.782-0.494-4.581,2.197-6.454,3.733c-0.677,0.556-1.316,0.916-2.139,0.475c-1.222-0.656-2.101-1.922-3.125-2.818
	c-2.161-1.892-4.373-1.865-6.521,0.031c-0.962,0.85-1.854,2.069-3.059,2.617c-0.841,0.383-1.532-0.038-2.205-0.572
	c-1.882-1.496-3.692-4.057-6.433-3.426c-1.659,0.382-2.953,1.765-4.111,2.914c-0.566,0.563-1.343,1.453-2.2,1.484
	c-0.804,0.029-1.521-0.742-2.057-1.252c-1.204-1.148-2.364-2.614-4.021-3.121c-2.759-0.844-4.565,1.766-6.422,3.299
	c-0.614,0.508-1.323,1.034-2.146,0.752c-1.148-0.394-2.13-1.652-2.987-2.413c-2.104-1.869-4.303-2.357-6.619-0.564
	c-1.181,0.915-2.085,2.216-3.369,2.993c-0.799,0.483-1.403,0.272-2.116-0.277c-1.929-1.488-3.592-4.354-6.408-3.91
	c-1.4,0.221-2.508,1.237-3.48,2.195c-0.692,0.682-1.689,1.865-2.722,2.047c-0.809,0.143-1.53-0.496-2.098-0.986
	c-1.251-1.08-2.385-2.48-3.999-3.037c-2.804-0.968-4.857,1.558-6.696,3.24c-0.546,0.499-1.259,1.179-2.063,0.997
	c-1.071-0.241-2.1-1.594-2.815-2.296c-1.89-1.855-4.057-3.003-6.456-1.342c-1.431,0.991-3.449,4.367-5.533,3.105
	c-2.137-1.294-3.621-4.157-6.458-3.913c-1.351,0.116-2.469,0.972-3.442,1.849c-0.16,0.144-0.317,0.29-0.474,0.438
	c-0.737,0.694-0.818,2.033,0.395,2.306c0.883,0.198,1.453-0.641,2.051-1.15C3.548,39.652,4,39.264,4.511,39.11
	c0.879-0.264,1.65,0.397,2.275,0.938c1.27,1.099,2.439,2.542,4.099,3.07c2.793,0.89,4.731-1.641,6.589-3.26
	c0.638-0.556,1.333-1.089,2.182-0.708c1.428,0.641,2.401,2.203,3.589,3.165c2.223,1.8,4.416,1.351,6.437-0.518
	c0.906-0.838,2.071-2.456,3.405-2.729c0.876-0.179,1.663,0.56,2.264,1.092c1.942,1.719,4.036,4.043,6.839,2.75
	c1.583-0.73,2.615-2.164,3.937-3.236c0.683-0.555,1.315-0.886,2.133-0.436c2.316,1.276,3.7,4.642,6.773,4.268
	c1.278-0.155,2.33-0.993,3.235-1.851c0.833-0.789,2.081-2.464,3.384-2.61c0.865-0.097,1.651,0.678,2.238,1.207
	c1.251,1.129,2.502,2.583,4.228,2.963c2.91,0.641,4.638-2.214,6.653-3.705c0.733-0.542,1.326-0.662,2.108-0.158
	c1.44,0.928,2.396,2.453,3.831,3.402c2.263,1.497,4.356,0.481,6.147-1.245c0.787-0.759,2.071-2.441,3.352-2.474
	c1.015-0.025,1.937,1.047,2.611,1.676c2.016,1.879,4.22,3.521,6.883,1.846c1.385-0.871,2.324-2.266,3.673-3.168
	c0.771-0.517,1.357-0.456,2.104,0.079c2.073,1.485,3.779,4.638,6.769,3.979c1.351-0.298,2.403-1.301,3.354-2.244
	c0.722-0.718,1.928-2.197,3.11-2.168c1.044,0.025,2.008,1.178,2.705,1.828c0.984,0.919,2.676,2.717,4.225,2.374
	C126.94,42.952,126.906,41.03,125.6,40.789z"/>
</svg>
