<svg width="19" height="16" viewBox="0 0 19 16" fill="none" xmlns="http://www.w3.org/2000/svg">
<path d="M1.05875 7.69344L5.09228 9.19896L6.65342 14.2192C6.67622 14.2936 6.71699 14.3613 6.77213 14.4163C6.82728 14.4713 6.89511 14.5119 6.96964 14.5345C7.04417 14.5571 7.12312 14.561 7.19951 14.5458C7.27591 14.5307 7.34741 14.497 7.40771 14.4477L9.65533 12.6153C9.76999 12.5219 9.91233 12.469 10.0602 12.4648C10.2081 12.4607 10.3531 12.5056 10.4728 12.5925L14.5269 15.5357C14.5911 15.5823 14.666 15.612 14.7446 15.6223C14.8233 15.6325 14.9032 15.6229 14.9772 15.5944C15.0512 15.5658 15.1168 15.5192 15.1682 15.4588C15.2196 15.3984 15.255 15.3261 15.2713 15.2485L18.2428 0.962009C18.2601 0.878402 18.2546 0.791672 18.2268 0.710932C18.199 0.630192 18.15 0.558421 18.0849 0.503157C18.0198 0.447893 17.9411 0.411177 17.8569 0.396864C17.7727 0.382552 17.6863 0.391171 17.6066 0.421817L1.05418 6.80429C0.964123 6.83895 0.886741 6.9002 0.832322 6.97989C0.777902 7.05958 0.749022 7.15395 0.749518 7.25044C0.750014 7.34694 0.779863 7.441 0.835099 7.52013C0.890335 7.59926 0.968342 7.65971 1.05875 7.69344ZM6.40047 8.39744L14.2816 3.54334C14.3106 3.5247 14.3455 3.51764 14.3794 3.52357C14.4134 3.5295 14.4438 3.54798 14.4648 3.57534C14.4857 3.60271 14.4956 3.63694 14.4924 3.67124C14.4892 3.70555 14.4733 3.73741 14.4477 3.76048L7.94333 9.80696C7.71502 10.0195 7.56747 10.3047 7.5258 10.6138L7.3018 12.2557C7.29585 12.3023 7.27398 12.3454 7.23989 12.3776C7.20581 12.4099 7.16161 12.4294 7.11478 12.4328C7.06796 12.4362 7.0214 12.4233 6.983 12.3963C6.9446 12.3693 6.91672 12.3299 6.90409 12.2847L6.05228 9.29039C6.00509 9.12394 6.01357 8.94663 6.07642 8.78544C6.13927 8.62426 6.25306 8.48801 6.40047 8.39744Z" fill="white"/>
</svg>
