<svg width="18" height="8" viewBox="0 0 18 8" fill="none" xmlns="http://www.w3.org/2000/svg">
<path d="M2.24561 3.92143L2.28121 3.88789L2.31681 3.85435L2.35241 3.82084L2.38802 3.78735L2.42362 3.75389L2.45922 3.72048L2.49483 3.68711L2.53043 3.6538L2.56603 3.62056L2.60164 3.58739L2.63724 3.55431L2.67284 3.52131L2.70845 3.48842L2.74405 3.45563L2.77965 3.42295L2.81525 3.3904L2.85086 3.35798L2.88646 3.3257L2.92206 3.29356L2.95767 3.26158L2.99327 3.22977L3.02887 3.19812L3.06448 3.16665L3.10008 3.13537L3.13568 3.10428L3.17129 3.0734L3.20689 3.04272L3.24249 3.01226L3.27809 2.98203L3.3137 2.95202L3.3493 2.92226L3.3849 2.89274L3.42051 2.86348L3.45611 2.83447L3.49171 2.80574L3.52732 2.77728L3.56292 2.7491L3.59852 2.72121L3.63413 2.69362L3.66973 2.66633L3.70533 2.63935L3.74093 2.61269L3.77654 2.58635L3.81214 2.56034L3.84774 2.53466L3.88335 2.50933L3.91895 2.48435L3.95455 2.45972L3.99016 2.43545L4.02576 2.41155L4.06136 2.38802L4.09697 2.36486L4.13257 2.3421L4.16817 2.31972L4.20377 2.29774L4.23938 2.27615L4.27498 2.25498L4.31058 2.23421L4.34619 2.21386L4.38179 2.19394L4.41739 2.17444L4.453 2.15537L4.4886 2.13673L4.5242 2.11854L4.55981 2.10079L4.59541 2.08349L4.63101 2.06664L4.66661 2.05025L4.70222 2.03433L4.73782 2.01887L4.77342 2.00387L4.80903 1.98935L4.84463 1.97531L4.88023 1.96175L4.91584 1.94867L4.95144 1.93608L4.98704 1.92398L5.02265 1.91237L5.05825 1.90126L5.09385 1.89064L5.12945 1.88053L5.16506 1.87092L5.20066 1.86181L5.23626 1.85322L5.27187 1.84513L5.30747 1.83756L5.34307 1.8305L5.37868 1.82395L5.41428 1.81793L5.44988 1.81242L5.48549 1.80744L5.52109 1.80297L5.55669 1.79903L5.59229 1.79561L5.6279 1.79272L5.6635 1.79035L5.6991 1.7885L5.73471 1.78719L5.77031 1.7864L5.80591 1.78613L5.84152 1.7864L5.87712 1.78719L5.91272 1.7885L5.94833 1.79035L5.98393 1.79272L6.01953 1.79561L6.05513 1.79903L6.09074 1.80297L6.12634 1.80744L6.16194 1.81242L6.19755 1.81793L6.23315 1.82395L6.26875 1.8305L6.30436 1.83756L6.33996 1.84513L6.37556 1.85322L6.41117 1.86181L6.44677 1.87092L6.48237 1.88053L6.51797 1.89064L6.55358 1.90126L6.58918 1.91237L6.62478 1.92398L6.66039 1.93608L6.69599 1.94867L6.73159 1.96175L6.7672 1.97531L6.8028 1.98935L6.8384 2.00387L6.87401 2.01887L6.90961 2.03433L6.94521 2.05025L6.98081 2.06664L7.01642 2.08349L7.05202 2.10079L7.08762 2.11854L7.12323 2.13673L7.15883 2.15537L7.19443 2.17444L7.23004 2.19394L7.26564 2.21386L7.30124 2.23421L7.33685 2.25498L7.37245 2.27615L7.40805 2.29774L7.44365 2.31972L7.47926 2.3421L7.51486 2.36486L7.55046 2.38802L7.58607 2.41155L7.62167 2.43545L7.65727 2.45972L7.69288 2.48435L7.72848 2.50933L7.76408 2.53466L7.79969 2.56034L7.83529 2.58635L7.87089 2.61269L7.90649 2.63935L7.9421 2.66633L7.9777 2.69362L8.0133 2.72121L8.04891 2.7491L8.08451 2.77728L8.12011 2.80574L8.15572 2.83447L8.19132 2.86348L8.22692 2.89274L8.26253 2.92226L8.29813 2.95202L8.33373 2.98203L8.36933 3.01226L8.40494 3.04272L8.44054 3.0734L8.47614 3.10428L8.51175 3.13537L8.54735 3.16665L8.58295 3.19812L8.61856 3.22977L8.65416 3.26158L8.68976 3.29356L8.72537 3.3257L8.76097 3.35798L8.79657 3.3904L8.83217 3.42295L8.86778 3.45563L8.90338 3.48842L8.93898 3.52131L8.97459 3.55431L9.01019 3.58739L9.04579 3.62056L9.0814 3.6538L9.117 3.68711L9.1526 3.72048L9.18821 3.75389L9.22381 3.78735L9.25941 3.82084L9.29501 3.85435L9.33062 3.88789L9.36622 3.92143L9.40182 3.95497L9.43743 3.9885L9.47303 4.02201L9.50863 4.0555L9.54424 4.08896L9.57984 4.12237L9.61544 4.15574L9.65105 4.18905L9.68665 4.22229L9.72225 4.25546L9.75785 4.28854L9.79346 4.32154L9.82906 4.35444L9.86466 4.38723L9.90027 4.4199L9.93587 4.45245L9.97147 4.48487L10.0071 4.51715L10.0427 4.54929L10.0783 4.58127L10.1139 4.61308L10.1495 4.64473L10.1851 4.6762L10.2207 4.70748L10.2563 4.73857L10.2919 4.76945L10.3275 4.80013L10.3631 4.83059L10.3987 4.86082L10.4343 4.89083L10.4699 4.92059L10.5055 4.95011L10.5411 4.97938L10.5767 5.00838L10.6123 5.03711L10.6479 5.06557L10.6835 5.09375L10.7191 5.12164L10.7547 5.14923L10.7903 5.17652L10.8259 5.2035L10.8615 5.23016L10.8972 5.2565L10.9328 5.28251L10.9684 5.30819L11.004 5.33352L11.0396 5.3585L11.0752 5.38313L11.1108 5.4074L11.1464 5.43131L11.182 5.45484L11.2176 5.47799L11.2532 5.50075L11.2888 5.52313L11.3244 5.54512L11.36 5.5667L11.3956 5.58787L11.4312 5.60864L11.4668 5.62899L11.5024 5.64891L11.538 5.66841L11.5736 5.68748L11.6092 5.70612L11.6448 5.72431L11.6804 5.74206L11.716 5.75936L11.7516 5.77621L11.7872 5.7926L11.8228 5.80852L11.8584 5.82399L11.894 5.83898L11.9296 5.8535L11.9652 5.86754L12.0008 5.8811L12.0365 5.89418L12.0721 5.90677L12.1077 5.91887L12.1433 5.93048L12.1789 5.94159L12.2145 5.95221L12.2501 5.96232L12.2857 5.97193L12.3213 5.98104L12.3569 5.98963L12.3925 5.99772L12.4281 6.00529L12.4637 6.01235L12.4993 6.0189L12.5349 6.02492L12.5705 6.03043L12.6061 6.03542L12.6417 6.03988L12.6773 6.04382L12.7129 6.04724L12.7485 6.05014L12.7841 6.05251L12.8197 6.05435L12.8553 6.05566L12.8909 6.05646L12.9265 6.05672L12.9621 6.05646L12.9977 6.05566L13.0333 6.05435L13.0689 6.05251L13.1045 6.05014L13.1401 6.04724L13.1757 6.04382L13.2114 6.03988L13.247 6.03542L13.2826 6.03043L13.3182 6.02492L13.3538 6.0189L13.3894 6.01235L13.425 6.00529L13.4606 5.99772L13.4962 5.98963L13.5318 5.98104L13.5674 5.97193L13.603 5.96232L13.6386 5.95221L13.6742 5.94159L13.7098 5.93048L13.7454 5.91887L13.781 5.90677L13.8166 5.89418L13.8522 5.8811L13.8878 5.86754L13.9234 5.8535L13.959 5.83898L13.9946 5.82399L14.0302 5.80852L14.0658 5.7926L14.1014 5.77621L14.137 5.75936L14.1726 5.74206L14.2082 5.72431L14.2438 5.70612L14.2794 5.68748L14.315 5.66841L14.3507 5.64891L14.3863 5.62899L14.4219 5.60864L14.4575 5.58787L14.4931 5.5667L14.5287 5.54512L14.5643 5.52313L14.5999 5.50075L14.6355 5.47799L14.6711 5.45484L14.7067 5.43131L14.7423 5.4074L14.7779 5.38313L14.8135 5.3585L14.8491 5.33352L14.8847 5.30819L14.9203 5.28251L14.9559 5.2565L14.9915 5.23016L15.0271 5.2035L15.0627 5.17652L15.0983 5.14923L15.1339 5.12164L15.1695 5.09375L15.2051 5.06557L15.2407 5.03711L15.2763 5.00838L15.3119 4.97938L15.3475 4.95011L15.3831 4.92059L15.4187 4.89083L15.4543 4.86082L15.4899 4.83059L15.5256 4.80013L15.5612 4.76945L15.5968 4.73857L15.6324 4.70748L15.668 4.6762L15.7036 4.64473L15.7392 4.61308L15.7748 4.58127L15.8104 4.54929L15.846 4.51715L15.8816 4.48487L15.9172 4.45245L15.9528 4.4199L15.9884 4.38723L16.024 4.35444L16.0596 4.32154L16.0952 4.28854L16.1308 4.25546L16.1664 4.22229L16.202 4.18905L16.2376 4.15574L16.2732 4.12237L16.3088 4.08896L16.3444 4.0555L16.38 4.02201L16.4156 3.9885L16.4512 3.95497" stroke="#EDFB55" stroke-width="3" stroke-miterlimit="10" stroke-linecap="round" stroke-linejoin="round"/>
</svg>
