<svg width="27" height="8" viewBox="0 0 27 8" fill="none" xmlns="http://www.w3.org/2000/svg">
<path fill-rule="evenodd" clip-rule="evenodd" d="M14 0.300808L13.9816 0.302436L13.946 0.305854L13.9243 0.308099L13.8887 0.312041L13.8672 0.314588L13.8315 0.319053L13.8101 0.321894L13.7745 0.326881L13.7533 0.330008L13.7177 0.335515L13.6967 0.338922L13.6611 0.344948L13.6403 0.348623L13.6047 0.355167L13.5841 0.359102L13.5484 0.366161L13.5281 0.370345L13.4925 0.377918L13.4724 0.38234L13.4368 0.390426L13.4169 0.395074L13.3813 0.40367L13.3618 0.408534L13.3262 0.417638L13.3069 0.422706L13.2713 0.432317L13.2523 0.437576L13.2167 0.44769L13.198 0.453129L13.1624 0.463744L13.144 0.469351L13.1084 0.480464L13.0904 0.486226L13.0548 0.497835L13.037 0.50374L13.0014 0.515842L12.984 0.521876L12.9484 0.534468L12.9313 0.540624L12.8957 0.553703L12.879 0.559964L12.8434 0.573526L12.827 0.579883L12.7914 0.593925L12.7753 0.600364L12.7397 0.614883L12.724 0.621397L12.6884 0.636389L12.673 0.642964L12.6374 0.658425L12.6224 0.66505L12.5868 0.680977L12.5721 0.687642L12.5365 0.704031L12.5222 0.710726L12.4866 0.727572L12.4726 0.734289L12.437 0.751589L12.4233 0.758317L12.3877 0.776066L12.3744 0.782796L12.3387 0.80099L12.3257 0.807714L12.2901 0.826349L12.2775 0.833059L12.2418 0.852071L12.1939 0.87826L12.1463 0.904849L12.099 0.931819L12.052 0.959166L12.0053 0.98687L11.9589 1.01493L11.9128 1.04332L11.867 1.07204L11.8215 1.10108L11.7763 1.13043L11.7314 1.16007L11.6868 1.19L11.6424 1.22021L11.5983 1.25069L11.5544 1.28142L11.5108 1.31241L11.4675 1.34363L11.4244 1.37509L11.3815 1.40677L11.3389 1.43866L11.2965 1.47075L11.2543 1.50305L11.2124 1.53553L11.1707 1.56819L11.1291 1.60102L11.0878 1.63401L11.0467 1.66717L11.0058 1.70046L10.9651 1.7339L10.9246 1.76747L10.8843 1.80116L10.8442 1.83496L10.8042 1.86888L10.7645 1.90288L10.7249 1.93699L10.6855 1.97117L10.6462 2.00543L10.6071 2.03976L10.5682 2.07415L10.5295 2.10859L10.4909 2.14308L10.4524 2.17759L10.4141 2.21214L10.376 2.24671L10.338 2.28129L10.3002 2.31587L10.2625 2.35044L10.225 2.38501L10.1876 2.41956L10.1504 2.45407L10.1133 2.48856L10.0763 2.52299L10.0028 2.5917L9.74977 2.82956C9.7162 2.86118 9.68441 2.89399 9.65441 2.92785C9.63148 2.94822 9.60903 2.96942 9.58709 2.99143L9.13919 3.4372L9.10368 3.47193L9.07019 3.50455L9.03916 3.53466L9.03684 3.53691L9.00611 3.5666L9.00364 3.56897L8.97321 3.59825L8.97059 3.60076L8.94046 3.6296L8.93769 3.63224L8.90786 3.66064L8.90494 3.66342L8.87543 3.69137L8.87235 3.69428L8.84315 3.72177L8.83991 3.72481L8.81104 3.75184L8.80764 3.75502L8.77909 3.78158L8.77553 3.78489L8.74732 3.81096L8.74358 3.81441L8.71572 3.83999L8.7118 3.84357L8.68428 3.86866L8.6802 3.87236L8.65303 3.89695L8.64877 3.90079L8.62197 3.92486L8.61752 3.92884L8.59108 3.95239L8.58646 3.95649L8.56039 3.97952L8.55557 3.98376L8.52739 4.00843L8.49702 4.03479L8.46682 4.06075L8.43676 4.08636L8.40707 4.1114L8.3774 4.13616L8.34808 4.16037L8.31898 4.18413L8.29004 4.2075L8.26139 4.23036L8.23304 4.25271L8.20481 4.27469L8.17693 4.29611L8.14924 4.3171L8.12184 4.33759L8.09466 4.35763L8.06778 4.37715L8.04122 4.39615L8.01494 4.41466L7.9889 4.4327L7.96319 4.45021L7.9378 4.46722L7.91269 4.48374L7.88791 4.49975L7.86345 4.51525L7.83931 4.53025L7.81553 4.54473L7.79204 4.55874L7.76895 4.57221L7.74617 4.58522L7.72376 4.59771L7.70172 4.60971L7.68 4.62125L7.65871 4.63227L7.63775 4.64284L7.61714 4.65295L7.59698 4.66256L7.57713 4.67175L7.55771 4.68046L7.53862 4.68876L7.51994 4.6966L7.50164 4.70403L7.48368 4.71106L7.46616 4.71766L7.44899 4.72388L7.43216 4.72973L7.41572 4.7352L7.39962 4.74031L7.38388 4.74508L7.36846 4.74951L7.35342 4.75361L7.33865 4.75741L7.32423 4.7609L7.31007 4.76411L7.29622 4.76704L7.2826 4.7697L7.26928 4.7721L7.25618 4.77426L7.24329 4.77619L7.2306 4.77788L7.21809 4.77936L7.20574 4.78062L7.19352 4.78168L7.18141 4.78254L7.16942 4.7832L7.15746 4.78367L7.14558 4.78395L7.13371 4.78405L7.12185 4.78395L7.10997 4.78367L7.09801 4.7832L7.08601 4.78254L7.0739 4.78168L7.06169 4.78062L7.04933 4.77936L7.03683 4.77788L7.02414 4.77619L7.01125 4.77426L6.99814 4.7721L6.98482 4.7697L6.97121 4.76704L6.95735 4.76411L6.9432 4.7609L6.92878 4.75741L6.91401 4.75361L6.89896 4.74951L6.88354 4.74508L6.86782 4.74032L6.85171 4.7352L6.83527 4.72973L6.81845 4.72389L6.80126 4.71766L6.78375 4.71106L6.76579 4.70403L6.74749 4.6966L6.7288 4.68875L6.70974 4.68047L6.69029 4.67175L6.67045 4.66256L6.65026 4.65294L6.62968 4.64285L6.60871 4.63227L6.58743 4.62125L6.56571 4.60971L6.54367 4.59771L6.52126 4.58522L6.49847 4.57221L6.47539 4.55874L6.45186 4.54471L6.42812 4.53025L6.40398 4.51525L6.37952 4.49975L6.35474 4.48374L6.32963 4.46722L6.30423 4.45021L6.27852 4.4327L6.25249 4.41466L6.2262 4.39615L6.19959 4.37711L6.17278 4.35764L6.14559 4.33759L6.11818 4.3171L6.0905 4.29611L6.06262 4.27469L6.03438 4.25271L6.00603 4.23036L5.97731 4.20744L5.94845 4.18414L5.91935 4.16037L5.89003 4.13616L5.86036 4.1114L5.83066 4.08636L5.80069 4.06083L5.77041 4.03479L5.74004 4.00843L5.71186 3.98376L5.70704 3.97952L5.68097 3.95649L5.67635 3.95239L5.64991 3.92884L5.64545 3.92486L5.61866 3.90079L5.6144 3.89695L5.58723 3.87236L5.58314 3.86866L5.55563 3.84357L5.55171 3.83999L5.52385 3.81441L5.52011 3.81096L5.4919 3.78489L5.48833 3.78158L5.45979 3.75502L5.45639 3.75184L5.42751 3.72481L5.42427 3.72177L5.39508 3.69428L5.392 3.69137L5.36249 3.66342L5.35957 3.66064L5.32973 3.63224L5.32697 3.6296L5.29684 3.60076L5.29422 3.59825L5.26378 3.56897L5.26132 3.5666L5.23059 3.53691L5.22827 3.53466L5.19724 3.50455L5.16375 3.47193L4.57354 2.88424L4.53763 2.84822L4.35718 2.6678L4.32061 2.63142L4.2839 2.59498L4.24707 2.55851L4.21009 2.52199L4.17297 2.48545L4.13572 2.44888L4.09833 2.41232L4.06079 2.37574L4.02311 2.33918L3.98528 2.30262L3.9473 2.2661L3.90917 2.2296L3.8709 2.19314L3.83247 2.15674L3.79387 2.12038L3.75512 2.08409L3.7162 2.04787L3.67712 2.01174L3.63787 1.97569L3.59844 1.93973L3.55885 1.90389L3.51907 1.86815L3.47911 1.83255L3.43896 1.79706L3.39863 1.76171L3.3581 1.72651L3.31737 1.69146L3.27643 1.65657L3.23529 1.62185L3.19394 1.58731L3.15237 1.55296L3.11059 1.5188L3.06857 1.48484L3.02632 1.45109L2.98384 1.41757L2.94111 1.38427L2.89813 1.35121L2.8549 1.31839L2.81142 1.28583L2.76766 1.25354L2.72364 1.22151L2.67934 1.18977L2.63476 1.15833L2.58989 1.12718L2.54472 1.09635L2.49926 1.06584L2.45348 1.03566L2.4074 1.00583L2.36099 0.976348L2.31427 0.947238L2.2672 0.918501L2.21977 0.890216L2.20755 0.883003L2.17203 0.862276L2.15946 0.855022L2.12395 0.834753L2.11103 0.827462L2.07551 0.807656L2.06223 0.800337L2.02672 0.781L2.01308 0.773663L1.97756 0.754799L1.96356 0.747453L1.92804 0.729066L1.91367 0.721721L1.87815 0.703815L1.86341 0.696482L1.82789 0.679063L1.81277 0.671751L1.77726 0.654823L1.76176 0.647543L1.72624 0.63111L1.71036 0.623874L1.67485 0.60794L1.65859 0.600759L1.62307 0.585328L1.60644 0.578218L1.57092 0.563293L1.5539 0.556263L1.51839 0.541848L1.50099 0.534914L1.46548 0.521013L1.4477 0.514184L1.41219 0.5008L1.39404 0.494096L1.35852 0.481233L1.34001 0.474663L1.30449 0.462324L1.28561 0.455904L1.25009 0.444092L1.23085 0.437835L1.19533 0.426553L1.17574 0.420474L1.14022 0.409724L1.12028 0.403838L1.08476 0.393624L1.06448 0.387945L1.02897 0.378268L1.00836 0.372811L0.97285 0.363674L0.951929 0.358452L0.916415 0.349858L0.895191 0.344885L0.859677 0.336835L0.83816 0.332124L0.802646 0.324621L0.780854 0.320185L0.745339 0.313231L0.723289 0.309083L0.687775 0.302679L0.665477 0.298831L0.629962 0.292978L0.607446 0.289442L0.571932 0.284142L0.549203 0.280928L0.513689 0.276182L0.490769 0.273299L0.455255 0.269109L0.432168 0.266566L0.396654 0.262932L0.373422 0.260738L0.337908 0.257662L0.314547 0.255822L0.279033 0.253304L0.255565 0.251825L0.22005 0.249866L0.196509 0.248754L0.160995 0.247354L0.137393 0.24661L0.101879 0.24577L0.078238 0.245397L0.0427241 0.245117H0.0190744L0 0.245268V3.24577L0.00713681 3.24549L0.0190301 3.24521L0.030899 3.24512L0.0427685 3.24521L0.0546613 3.24549L0.0665994 3.24596L0.0786061 3.24662L0.0907016 3.24748L0.102922 3.24854L0.11527 3.2498L0.127788 3.25128L0.140473 3.25298L0.153357 3.2549L0.166469 3.25706L0.179808 3.25947L0.193395 3.26213L0.207261 3.26506L0.221396 3.26826L0.235843 3.27176L0.250592 3.27555L0.265658 3.27965L0.281067 3.28409L0.296804 3.28885L0.312896 3.29396L0.329341 3.29943L0.346162 3.30528L0.363341 3.3115L0.380889 3.31811L0.398815 3.32513L0.417124 3.33256L0.435814 3.34041L0.454867 3.34869L0.474319 3.35742L0.49414 3.36659L0.514358 3.37623L0.534926 3.38632L0.555885 3.39688L0.577208 3.40792L0.598895 3.41944L0.620958 3.43146L0.643357 3.44395L0.666121 3.45694L0.689247 3.47044L0.712718 3.48443L0.736495 3.49891L0.760633 3.51391L0.785087 3.52941L0.809875 3.54542L0.834968 3.56193L0.860372 3.57894L0.886096 3.59647L0.91212 3.6145L0.938414 3.63302L0.965005 3.65204L0.991855 3.67154L1.01899 3.69154L1.0464 3.71204L1.07407 3.73302L1.10203 3.7545L1.13018 3.77641L1.15859 3.79881L1.18728 3.8217L1.21618 3.84504L1.24528 3.8688L1.27465 3.89306L1.30421 3.91773L1.33398 3.94283L1.36399 3.9684L1.39417 3.99435L1.42454 4.02071L1.45521 4.04757L1.48597 4.07475L1.51694 4.10233L1.54809 4.1303L1.5794 4.15863L1.61091 4.18736L1.64265 4.2165L1.67455 4.24599L1.70483 4.27415L1.70823 4.27732L1.7371 4.30435L1.74034 4.30739L1.76953 4.33489L1.77261 4.3378L1.80213 4.36575L1.80505 4.36852L1.83488 4.39693L1.83764 4.39957L1.86778 4.42841L1.87039 4.43092L1.90083 4.46019L1.90329 4.46256L1.93403 4.49226L1.93634 4.4945L1.96738 4.52461L3.10599 5.65552L3.14382 5.69223L3.17933 5.72654L3.21731 5.76307L3.25544 5.79957L3.29371 5.83602L3.33215 5.87243L3.37074 5.90879L3.4095 5.94508L3.44841 5.98129L3.48749 6.01743L3.52674 6.05348L3.56617 6.08943L3.60576 6.12527L3.64554 6.16101L3.68551 6.19663L3.72564 6.2321L3.76598 6.26745L3.80653 6.30266L3.84724 6.3377L3.88818 6.37259L3.92932 6.40731L3.97067 6.44185L4.01223 6.4762L4.05403 6.51037L4.09604 6.54432L4.13829 6.57807L4.18078 6.6116L4.2235 6.64489L4.26649 6.67796L4.3097 6.71077L4.3532 6.74333L4.39695 6.77562L4.44098 6.80765L4.48527 6.83939L4.52985 6.87084L4.57472 6.90198L4.61989 6.93282L4.66536 6.96333L4.71112 6.9935L4.75722 7.02334L4.80362 7.05281L4.85035 7.08193L4.89741 7.11066L4.94483 7.13894L4.95707 7.14616L4.99258 7.16689L5.00515 7.17414L5.04067 7.19441L5.05359 7.2017L5.0891 7.22151L5.10238 7.22883L5.1379 7.24816L5.15153 7.2555L5.18704 7.27436L5.20105 7.28171L5.23657 7.3001L5.25096 7.30745L5.28647 7.32536L5.30121 7.33268L5.33672 7.3501L5.35183 7.35741L5.38735 7.37434L5.40287 7.38163L5.43838 7.39806L5.45425 7.40529L5.48977 7.42123L5.50602 7.4284L5.54153 7.44383L5.55817 7.45094L5.59369 7.46587L5.61071 7.4729L5.64622 7.48732L5.66362 7.49425L5.69913 7.50815L5.7169 7.51498L5.75242 7.52836L5.77058 7.53507L5.8061 7.54794L5.8246 7.5545L5.86012 7.56684L5.87901 7.57326L5.91453 7.58508L5.93376 7.59133L5.96928 7.60261L5.98887 7.60869L6.02438 7.61944L6.04434 7.62533L6.07985 7.63554L6.10012 7.64122L6.13563 7.65089L6.15626 7.65636L6.19177 7.66549L6.21267 7.67071L6.24819 7.6793L6.26944 7.68428L6.30495 7.69233L6.32646 7.69704L6.36197 7.70454L6.38375 7.70898L6.41926 7.71593L6.44132 7.72008L6.47683 7.72648L6.49914 7.73033L6.53465 7.73619L6.55717 7.73972L6.59268 7.74502L6.61542 7.74824L6.65094 7.75298L6.67384 7.75586L6.70935 7.76006L6.73245 7.7626L6.76796 7.76623L6.7912 7.76843L6.82671 7.7715L6.85006 7.77334L6.88557 7.77586L6.90905 7.77734L6.94456 7.7793L6.9681 7.78041L7.00361 7.78181L7.02721 7.78255L7.06273 7.78339L7.08638 7.78377L7.12189 7.78405H7.14553L7.18105 7.78377L7.2047 7.78339L7.24021 7.78255L7.26382 7.78181L7.29933 7.78041L7.32286 7.7793L7.35838 7.77734L7.38185 7.77586L7.41737 7.77334L7.44072 7.7715L7.47623 7.76843L7.49946 7.76623L7.53498 7.7626L7.55807 7.76006L7.59359 7.75586L7.61649 7.75298L7.65201 7.74824L7.67475 7.74502L7.71026 7.73972L7.73278 7.73619L7.76829 7.73033L7.7906 7.72648L7.82611 7.72008L7.84816 7.71593L7.88368 7.70898L7.90545 7.70454L7.94097 7.69704L7.96247 7.69233L7.99799 7.68428L8.01924 7.6793L8.05475 7.67071L8.07565 7.66549L8.11117 7.65636L8.13179 7.65089L8.16731 7.64122L8.18757 7.63554L8.22309 7.62533L8.24305 7.61944L8.27856 7.60869L8.29815 7.60261L8.33366 7.59133L8.3529 7.58508L8.38841 7.57326L8.40731 7.56684L8.44283 7.5545L8.46133 7.54794L8.49684 7.53507L8.51501 7.52836L8.55052 7.51498L8.56829 7.50815L8.60381 7.49425L8.6212 7.48732L8.65672 7.4729L8.67374 7.46587L8.70926 7.45094L8.72589 7.44383L8.76141 7.4284L8.77766 7.42123L8.81317 7.40529L8.82905 7.39806L8.86456 7.38163L8.88008 7.37434L8.91559 7.35741L8.93071 7.3501L8.96622 7.33268L8.98095 7.32536L9.01647 7.30745L9.03086 7.3001L9.06637 7.28171L9.08038 7.27436L9.1159 7.2555L9.12953 7.24816L9.16505 7.22883L9.17833 7.22151L9.21384 7.2017L9.22676 7.19441L9.26228 7.17414L9.27484 7.16689L9.31036 7.14616L9.3226 7.13894L9.35814 7.11782L9.40553 7.08903L9.45259 7.05986L9.49932 7.0303L9.54572 7.0004L9.59182 6.97013L9.63758 6.93955L9.68305 6.90862L9.72822 6.87737L9.77309 6.84583L9.81767 6.81398L9.86196 6.78186L9.90599 6.74944L9.94974 6.71678L9.99324 6.68384L10.0365 6.65067L10.0794 6.61724L10.1222 6.5836L10.1646 6.54973L10.2069 6.51564L10.2489 6.48136L10.2907 6.44687L10.3323 6.41221L10.3736 6.37737L10.4148 6.34234L10.4557 6.30716L10.4964 6.27184L10.537 6.23635L10.5773 6.20073L10.6174 6.16499L10.6574 6.12912L10.6972 6.09314L10.7368 6.05706L10.7762 6.02087L10.8154 5.98459L10.819 5.98129L10.8545 5.94825L10.8579 5.94507L10.8934 5.91182L10.8967 5.90878L10.9322 5.87534L10.9353 5.87243L10.9708 5.83879L10.9737 5.83602L11.0092 5.8022L11.012 5.79956L11.0475 5.76557L11.0501 5.76306L11.0856 5.72891L11.0881 5.72654L11.1259 5.68998L11.1614 5.65552L11.2011 5.61685L11.7121 5.10903C11.7333 5.08776 11.7537 5.06601 11.7734 5.04382C11.7847 5.03381 11.7958 5.02361 11.8069 5.01321L12.3579 4.49943L12.3911 4.46917L12.3935 4.46701L12.4255 4.43803L12.4585 4.40826L12.4913 4.37873L12.524 4.34952L12.5566 4.32058L12.5889 4.29199L12.6211 4.26373L12.6532 4.23571L12.685 4.20807L12.7167 4.18076L12.7483 4.15378L12.7796 4.12716L12.8108 4.10092L12.8418 4.075L12.8725 4.04948L12.9031 4.02433L12.9336 3.99955L12.9638 3.97514L12.9937 3.95121L13.0236 3.9276L13.0532 3.90442L13.0825 3.88167L13.1117 3.85932L13.1406 3.8374L13.1693 3.81589L13.1978 3.79485L13.226 3.77422L13.254 3.75405L13.2817 3.73431L13.3092 3.71504L13.3364 3.6962L13.3634 3.67783L13.3901 3.65991L13.4165 3.64245L13.4426 3.62545L13.4685 3.60891L13.494 3.59284L13.5193 3.57723L13.5443 3.56211L13.569 3.54742L13.5933 3.53321L13.6174 3.51946L13.6411 3.50618L13.6645 3.49335L13.6876 3.48098L13.7104 3.46906L13.7328 3.4576L13.7549 3.44658L13.7767 3.436L13.7981 3.42586L13.8192 3.41616L13.84 3.40688L13.8604 3.39802L13.8804 3.38957L13.9001 3.38153L13.9195 3.37389L13.9386 3.36664L13.9573 3.35977L13.9756 3.35327L13.9937 3.34714L14 3.34507V0.300808ZM21 7.52963L21.0093 7.53073L21.0449 7.53467L21.0667 7.53692L21.1023 7.54033L21.1241 7.54227L21.1597 7.54516L21.1816 7.54679L21.2172 7.54915L21.2393 7.55046L21.2749 7.5523L21.297 7.55328L21.3326 7.5546L21.3547 7.55525L21.3904 7.55605L21.4126 7.55637L21.4482 7.55664H21.4703L21.5059 7.55637L21.5281 7.55605L21.5637 7.55525L21.5859 7.5546L21.6215 7.55328L21.6436 7.5523L21.6792 7.55046L21.7013 7.54915L21.7369 7.54679L21.7588 7.54516L21.7944 7.54227L21.8162 7.54033L21.8518 7.53692L21.8736 7.53467L21.9092 7.53073L21.9307 7.52818L21.9663 7.52372L21.9877 7.52088L22.0233 7.51589L22.0446 7.51276L22.0802 7.50725L22.1012 7.50385L22.1368 7.49782L22.1576 7.49414L22.1932 7.4876L22.2138 7.48367L22.2494 7.47661L22.2698 7.47243L22.3054 7.46485L22.3255 7.46043L22.3611 7.45234L22.3809 7.4477L22.4165 7.4391L22.4361 7.43423L22.4717 7.42513L22.491 7.42006L22.5266 7.41045L22.5456 7.40519L22.5812 7.39508L22.5999 7.38964L22.6355 7.37902L22.6539 7.37342L22.6895 7.36231L22.7075 7.35654L22.7431 7.34493L22.7608 7.33903L22.7965 7.32693L22.8139 7.32089L22.8495 7.3083L22.8665 7.30215L22.9021 7.28907L22.9189 7.28281L22.9545 7.26924L22.9709 7.26289L23.0065 7.24884L23.0225 7.2424L23.0581 7.22788L23.0739 7.22137L23.1095 7.20638L23.1248 7.19981L23.1604 7.18435L23.1755 7.17772L23.2111 7.16179L23.2258 7.15513L23.2614 7.13874L23.2757 7.13205L23.3113 7.1152L23.3253 7.10848L23.3609 7.09118L23.3746 7.08445L23.4102 7.0667L23.4235 7.05997L23.4591 7.04178L23.4721 7.03506L23.5077 7.01642L23.5204 7.00971L23.556 6.9907L23.604 6.96451L23.6516 6.93792L23.6989 6.91095L23.7459 6.88361L23.7926 6.8559L23.839 6.82785L23.8851 6.79945L23.9308 6.77073L23.9763 6.74169L24.0215 6.71234L24.0665 6.6827L24.1111 6.65276L24.1555 6.62256L24.1996 6.59208L24.2435 6.56135L24.2871 6.53036L24.3304 6.49914L24.3735 6.46768L24.4164 6.43601L24.459 6.40411L24.5014 6.37201L24.5436 6.33972L24.5855 6.30724L24.6272 6.27458L24.6687 6.24175L24.71 6.20875L24.7511 6.1756L24.792 6.14231L24.8327 6.10887L24.8733 6.0753L24.9136 6.04162L24.9537 6.00781L24.9936 5.97389L25.0334 5.93989L25.073 5.90578L25.1124 5.87159L25.1517 5.83734L25.1907 5.803L25.1941 5.80008L25.2297 5.76861L25.2328 5.76582L25.2684 5.73417L25.2714 5.73151L25.307 5.69969L25.3098 5.69715L25.3454 5.66517L25.3481 5.66276L25.3837 5.63063L25.3863 5.62834L25.4242 5.5939L25.5353 5.49232L25.9768 5.08041L26.0124 5.04688C26.6154 4.4789 26.6439 3.52958 26.0759 2.92651C25.5079 2.32344 24.5586 2.29499 23.9555 2.86297L23.4713 3.31472L23.4377 3.34537L23.4067 3.3736L23.4044 3.37576L23.3737 3.4036L23.3711 3.40588L23.3407 3.43332L23.3381 3.43573L23.308 3.46276L23.3051 3.4653L23.2754 3.49192L23.2724 3.49458L23.2429 3.52077L23.2398 3.52356L23.2106 3.54931L23.2073 3.55223L23.1785 3.57755L23.175 3.58059L23.1465 3.60546L23.1429 3.60863L23.1148 3.63305L23.1109 3.63635L23.0831 3.6603L23.0791 3.66373L23.0517 3.68721L23.0475 3.69076L23.0204 3.71377L23.0161 3.71745L22.9894 3.73997L22.9848 3.74377L22.9585 3.76581L22.9538 3.76973L22.9278 3.79128L22.9229 3.79533L22.8973 3.81637L22.8922 3.82055L22.8643 3.84325L22.8341 3.86762L22.8041 3.89156L22.7743 3.91518L22.7447 3.93837L22.7154 3.96111L22.6862 3.98346L22.6572 4.00541L22.6286 4.02687L22.6001 4.04792L22.5719 4.06853L22.5439 4.08869L22.5162 4.10846L22.4887 4.12775L22.4615 4.14658L22.4345 4.16495L22.4078 4.18288L22.3814 4.20032L22.3552 4.21733L22.3294 4.23388L22.3038 4.24992L22.2786 4.2655L22.2536 4.28067L22.2289 4.29533L22.2046 4.30955L22.1805 4.32331L22.1568 4.33659L22.1333 4.34942L22.1102 4.36179L22.0875 4.3737L22.065 4.38517L22.043 4.39618L22.0212 4.40677L21.9998 4.41689L21.9787 4.42661L21.9579 4.43589L21.9375 4.44476L21.9174 4.4532L21.8977 4.46124L21.8783 4.46889L21.8593 4.47613L21.8406 4.48301L21.8223 4.4895L21.8042 4.49562L21.7865 4.5014L21.7691 4.50683L21.7521 4.51192L21.7353 4.51668L21.7188 4.52113L21.7027 4.52526L21.6867 4.5291L21.6711 4.53265L21.6558 4.53592L21.6406 4.53892L21.6257 4.54166L21.6111 4.54414L21.5966 4.54638L21.5823 4.54838L21.5682 4.55015L21.5542 4.55169L21.5404 4.55302L21.5267 4.55414L21.5131 4.55504L21.4996 4.55574L21.4861 4.55624L21.4727 4.55654L21.4592 4.55664L21.4458 4.55654L21.4324 4.55624L21.4189 4.55574L21.4054 4.55504L21.3918 4.55414L21.3781 4.55302L21.3643 4.55169L21.3503 4.55015L21.3362 4.54838L21.3219 4.54638L21.3074 4.54414L21.2928 4.54166L21.2779 4.53892L21.2627 4.53592L21.2474 4.53265L21.2317 4.5291L21.2158 4.52526L21.1997 4.52113L21.1832 4.51668L21.1664 4.51192L21.1494 4.50683L21.132 4.5014L21.1143 4.49562L21.0962 4.4895L21.0779 4.483L21.0592 4.47614L21.0401 4.46888L21.0208 4.46124L21.0011 4.4532L21 4.45276V7.52963Z" fill="#EDFB55"/>
</svg>
