<?xml version="1.0" encoding="utf-8"?>
<!-- Generator: Adobe Illustrator 16.0.0, SVG Export Plug-In . SVG Version: 6.00 Build 0)  -->
<!DOCTYPE svg PUBLIC "-//W3C//DTD SVG 1.1//EN" "http://www.w3.org/Graphics/SVG/1.1/DTD/svg11.dtd">
<svg version="1.1" id="Layer_1" xmlns="http://www.w3.org/2000/svg" xmlns:xlink="http://www.w3.org/1999/xlink" x="0px" y="0px"
	 width="42px" height="42px" viewBox="-13 -13 42 42" enable-background="new -13 -13 42 42" xml:space="preserve">
<g>
	<path fill="#FFFFFF" d="M-11.091,29c-0.489,0-0.977-0.187-1.35-0.56c-0.746-0.745-0.746-1.953,0-2.699l38.182-38.182
		c0.746-0.746,1.954-0.746,2.699,0c0.746,0.746,0.746,1.954,0,2.7L-9.741,28.44C-10.114,28.813-10.603,29-11.091,29z"/>
</g>
<g>
	<path fill="#FFFFFF" d="M27.091,29c-0.488,0-0.977-0.187-1.35-0.56L-12.441-9.741c-0.746-0.746-0.746-1.954,0-2.7
		c0.746-0.746,1.954-0.746,2.7,0L28.44,25.741c0.746,0.746,0.746,1.954,0,2.699C28.067,28.813,27.579,29,27.091,29z"/>
</g>
</svg>
