<svg width="32" height="33" viewBox="0 0 32 33" fill="none" xmlns="http://www.w3.org/2000/svg">
<g clip-path="url(#clip0_212_89)">
<path d="M16 32.854C24.8366 32.854 32 25.6906 32 16.854C32 8.01745 24.8366 0.854004 16 0.854004C7.16344 0.854004 0 8.01745 0 16.854C0 25.6906 7.16344 32.854 16 32.854Z" fill="black"/>
<path d="M6.88477 13.2262V21.8991C6.88477 23.682 8.33488 25.1321 10.1178 25.1321H21.1989C22.9818 25.1321 24.4319 23.682 24.4319 21.8991V13.2262C24.4319 13.1987 24.4243 13.1727 24.4207 13.1458C24.4126 12.9638 24.2923 12.8202 24.1604 12.7078L16.0163 7.06949C15.8013 6.92085 15.5152 6.92085 15.3002 7.06949L7.15651 12.7078C6.99424 12.8353 6.88833 13.0157 6.885 13.2262H6.88477ZM15.6582 8.35155L22.6981 13.2258L15.6582 18.0975L8.61831 13.2258L15.6582 8.35155Z" fill="white"/>
</g>
<defs>
<clipPath id="clip0_212_89">
<rect width="32" height="32" fill="white" transform="translate(0 0.854004)"/>
</clipPath>
</defs>
</svg>
