<?xml version="1.0" encoding="utf-8"?>
<!-- Generator: Adobe Illustrator 16.0.0, SVG Export Plug-In . SVG Version: 6.00 Build 0)  -->
<!DOCTYPE svg PUBLIC "-//W3C//DTD SVG 1.1//EN" "http://www.w3.org/Graphics/SVG/1.1/DTD/svg11.dtd">
<svg version="1.1" id="Layer_1" xmlns="http://www.w3.org/2000/svg" xmlns:xlink="http://www.w3.org/1999/xlink" x="0px" y="0px"
	 width="595.281px" height="399.265px" viewBox="0 0 595.281 399.265" enable-background="new 0 0 595.281 399.265"
	 xml:space="preserve">
<path fill="#31459C" d="M0,0v391.595c4.662,0,7.125,1.926,9.104,3.473c1.693,1.322,2.813,2.197,5.412,2.197
	c2.597,0,3.716-0.875,5.412-2.197c1.979-1.547,4.441-3.473,9.104-3.473s7.125,1.926,9.104,3.473
	c1.693,1.322,2.813,2.197,5.408,2.197c2.598,0,3.718-0.875,5.412-2.197c1.979-1.547,4.443-3.473,9.104-3.473
	c4.662,0,7.126,1.926,9.104,3.473c1.695,1.322,2.815,2.197,5.412,2.197c2.596,0,3.715-0.875,5.41-2.197
	c1.979-1.547,4.443-3.473,9.104-3.473c4.661,0,7.126,1.926,9.104,3.473c1.695,1.322,2.815,2.197,5.412,2.197
	c2.596,0,3.716-0.875,5.412-2.197c1.979-1.547,4.441-3.473,9.104-3.473s7.125,1.926,9.104,3.473
	c1.693,1.322,2.813,2.197,5.412,2.197c2.597,0,3.717-0.875,5.413-2.197c1.979-1.547,4.441-3.473,9.104-3.473
	s7.125,1.926,9.104,3.473c1.693,1.322,2.813,2.197,5.411,2.197c2.599,0,3.719-0.875,5.413-2.197c1.98-1.547,4.444-3.473,9.106-3.473
	s7.125,1.926,9.104,3.473c1.694,1.322,2.814,2.197,5.411,2.197c2.599,0,3.718-0.875,5.413-2.197c1.98-1.547,4.444-3.473,9.106-3.473
	s7.125,1.926,9.104,3.473c1.695,1.322,2.815,2.197,5.412,2.197c2.598,0,3.717-0.875,5.412-2.197
	c1.979-1.547,4.443-3.473,9.106-3.473c4.661,0,7.126,1.926,9.104,3.473c1.696,1.322,2.816,2.197,5.413,2.197
	s3.717-0.875,5.412-2.197c1.979-1.547,4.442-3.473,9.104-3.473c4.661,0,7.126,1.926,9.105,3.473
	c1.696,1.322,2.815,2.197,5.413,2.197s3.718-0.875,5.414-2.197c1.979-1.547,4.443-3.473,9.106-3.473
	c4.662,0,7.126,1.926,9.104,3.473c1.696,1.322,2.815,2.197,5.413,2.197s3.718-0.875,5.413-2.197
	c1.979-1.547,4.441-3.473,9.104-3.473s7.127,1.926,9.106,3.473c1.694,1.322,2.815,2.197,5.413,2.197
	c2.597,0,3.717-0.875,5.411-2.197c1.979-1.547,4.442-3.473,9.105-3.473c4.662,0,7.127,1.926,9.105,3.473
	c1.694,1.322,2.815,2.197,5.413,2.197c2.597,0,3.717-0.875,5.411-2.197c1.979-1.547,4.441-3.473,9.104-3.473
	s7.126,1.926,9.104,3.473c1.694,1.322,2.814,2.197,5.411,2.197c2.6,0,3.72-0.875,5.414-2.197c1.98-1.547,4.444-3.473,9.106-3.473
	s7.126,1.926,9.104,3.473c1.695,1.322,2.815,2.197,5.412,2.197c2.6,0,3.72-0.875,5.413-2.197c1.979-1.547,4.443-3.473,9.105-3.473
	c4.663,0,7.127,1.926,9.106,3.473c1.694,1.322,2.815,2.197,5.412,2.197c2.601,0,3.72-0.875,5.415-2.197
	c1.98-1.547,4.444-3.473,9.107-3.473c4.662,0,7.127,1.926,9.105,3.473c1.694,1.322,2.814,2.197,5.412,2.197
	c2.599,0,3.72-0.875,5.414-2.197c1.98-1.547,4.444-3.473,9.107-3.473c4.662,0,7.127,1.926,9.105,3.473
	c1.696,1.322,2.816,2.197,5.414,2.197c2.6,0,3.72-0.875,5.415-2.197c1.979-1.547,4.445-3.473,9.108-3.473
	c4.661,0,7.127,1.926,9.104,3.473c1.695,1.322,2.815,2.197,5.413,2.197c2.6,0,3.721-0.875,5.417-2.199
	c1.979-1.545,4.444-3.471,9.107-3.471c4.661,0,7.126,1.926,9.105,3.473c1.694,1.322,2.815,2.197,5.413,2.197
	c2.602,0,3.723-0.875,5.42-2.199c1.979-1.545,4.445-3.471,9.109-3.471s7.13,1.926,9.109,3.471c1.697,1.324,2.818,2.199,5.42,2.199V0
	H0z"/>
</svg>
