<?xml version="1.0" encoding="utf-8"?>
<!-- Generator: Adobe Illustrator 16.0.0, SVG Export Plug-In . SVG Version: 6.00 Build 0)  -->
<!DOCTYPE svg PUBLIC "-//W3C//DTD SVG 1.1//EN" "http://www.w3.org/Graphics/SVG/1.1/DTD/svg11.dtd">
<svg version="1.1" id="Layer_1" xmlns="http://www.w3.org/2000/svg" xmlns:xlink="http://www.w3.org/1999/xlink" x="0px" y="0px"
	 width="9258.594px" height="152.667px" viewBox="-2130.786 171.167 9258.594 152.667"
	 enable-background="new -2130.786 171.167 9258.594 152.667" xml:space="preserve">
<path fill="#EDFB55" d="M7103.072,254.089c-35.541-29.146-69.926-77.714-119.92-77.714c-50.469,0-84.381,48.568-119.922,77.714
	c-8.207,6.737-16.152,12.039-24.754,13.413c-8.391,0-16.527-6.676-24.734-13.413c-35.541-29.146-69.927-77.714-119.922-77.714
	c-50.467,0-84.381,48.568-119.922,77.714c-8.207,6.737-16.15,12.039-24.752,13.413c-8.391,0-16.529-6.676-24.736-13.413
	c-35.541-29.146-69.926-77.714-119.92-77.714c-50.469,0-84.381,48.568-119.922,77.714c-8.207,6.737-16.152,12.039-24.754,13.413
	c-8.391,0-16.527-6.676-24.734-13.413c-35.541-29.146-69.927-77.714-119.922-77.714c-50.467,0-84.381,48.568-119.922,77.714
	c-8.207,6.737-16.15,12.039-24.752,13.413c-8.391,0-16.529-6.676-24.736-13.413c-35.541-29.146-69.926-77.714-119.92-77.714
	c-50.469,0-84.381,48.568-119.922,77.714c-8.207,6.737-16.152,12.039-24.754,13.413c-8.391,0-16.527-6.676-24.734-13.413
	c-35.541-29.146-69.927-77.714-119.922-77.714c-50.467,0-84.381,48.568-119.922,77.714c-8.207,6.737-16.15,12.039-24.752,13.413
	c-8.391,0-16.529-6.676-24.736-13.413c-35.541-29.146-69.926-77.714-119.92-77.714c-50.469,0-84.381,48.568-119.922,77.714
	c-8.207,6.737-16.152,12.039-24.754,13.413c-8.391,0-16.527-6.676-24.734-13.413c-35.541-29.146-69.927-77.714-119.922-77.714
	c-50.467,0-84.381,48.568-119.922,77.714c-8.207,6.737-16.15,12.039-24.752,13.413c-8.391,0-16.529-6.676-24.736-13.413
	c-35.541-29.146-69.926-77.714-119.92-77.714c-50.469,0-84.381,48.568-119.922,77.714c-8.207,6.737-16.152,12.039-24.754,13.413
	c-8.391,0-16.527-6.676-24.734-13.413c-35.541-29.146-69.927-77.714-119.922-77.714c-50.467,0-84.381,48.568-119.922,77.714
	c-8.207,6.737-16.15,12.039-24.752,13.413c-8.391,0-16.529-6.676-24.736-13.413c-35.541-29.146-69.926-77.714-119.92-77.714
	c-50.469,0-84.381,48.568-119.922,77.714c-8.207,6.737-16.152,12.039-24.754,13.413c-8.391,0-16.527-6.676-24.734-13.413
	c-35.541-29.146-69.927-77.714-119.922-77.714c-50.467,0-84.381,48.568-119.922,77.714c-8.207,6.737-16.15,12.039-24.752,13.413
	c-8.391,0-16.529-6.676-24.736-13.413c-35.541-29.146-69.926-77.714-119.92-77.714c-50.469,0-84.381,48.568-119.922,77.714
	c-8.207,6.737-16.152,12.039-24.754,13.413c-8.391,0-16.527-6.676-24.734-13.413c-35.541-29.146-69.927-77.714-119.922-77.714
	c-50.467,0-84.381,48.568-119.922,77.714c-8.207,6.737-16.15,12.039-24.752,13.413c-8.391,0-16.529-6.676-24.736-13.413
	c-35.541-29.146-69.926-77.714-119.92-77.714c-50.469,0-84.381,48.568-119.923,77.714c-8.207,6.737-16.15,12.039-24.752,13.413
	c-8.392,0-16.528-6.676-24.736-13.413c-35.54-29.146-69.926-77.714-119.921-77.714c-50.468,0-84.38,48.568-119.921,77.714
	c-8.207,6.737-16.152,12.039-24.753,13.413c-8.391,0-16.529-6.676-24.736-13.413c-35.541-29.146-69.926-77.714-119.92-77.714
	c-50.469,0-84.381,48.568-119.922,77.714c-8.207,6.737-16.152,12.039-24.754,13.413c-8.391,0-16.527-6.676-24.734-13.413
	c-35.541-29.146-69.927-77.714-119.922-77.714c-50.467,0-84.381,48.568-119.922,77.714c-8.207,6.737-16.15,12.039-24.752,13.413
	c-8.391,0-16.529-6.676-24.736-13.413c-35.541-29.146-69.926-77.714-119.92-77.714c-50.469,0-84.381,48.568-119.922,77.714
	c-8.207,6.737-16.152,12.039-24.754,13.413c-8.391,0-16.527-6.676-24.734-13.413c-35.541-29.146-69.927-77.714-119.922-77.714
	c-50.467,0-84.381,48.568-119.922,77.714c-8.207,6.737-16.15,12.039-24.752,13.413c-8.391,0-16.529-6.676-24.736-13.413
	c-35.541-29.146-69.926-77.714-119.92-77.714c-50.469,0-84.381,48.568-119.922,77.714c-8.207,6.737-16.152,12.039-24.754,13.413
	c-8.391,0-16.527-6.676-24.734-13.413c-35.541-29.146-69.927-77.714-119.922-77.714c-50.467,0-84.381,48.568-119.922,77.714
	c-8.207,6.737-16.15,12.039-24.752,13.413c-8.391,0-16.529-6.676-24.736-13.413c-35.541-29.146-69.926-77.714-119.92-77.714
	c-50.469,0-84.381,48.568-119.922,77.714c-8.207,6.737-16.152,12.039-24.754,13.413c-8.391,0-16.527-6.676-24.734-13.413
	c-35.541-29.146-69.927-77.714-119.922-77.714c-50.467,0-84.381,48.568-119.922,77.714c-8.207,6.737-16.15,12.039-24.752,13.413
	c-8.391,0-16.529-6.676-24.736-13.413c-35.541-29.146-69.926-77.714-119.92-77.714c-50.469,0-84.381,48.568-119.922,77.714
	c-8.207,6.737-16.152,12.039-24.754,13.413c-8.391,0-16.527-6.676-24.734-13.413c-35.541-29.146-69.927-77.714-119.922-77.714
	c-50.467,0-84.381,48.568-119.922,77.714c-8.207,6.737-16.15,12.039-24.752,13.413c-8.391,0-16.529-6.676-24.736-13.413
	c-35.541-29.146-69.926-77.714-119.92-77.714c-50.469,0-84.381,48.568-119.922,77.714c-8.207,6.737-16.152,12.039-24.754,13.413
	c-8.391,0-16.527-6.676-24.734-13.413c-35.541-29.146-69.927-77.714-119.922-77.714c-50.467,0-84.381,48.568-119.922,77.714
	c-8.207,6.737-16.15,12.039-24.752,13.413c-8.391,0-16.529-6.676-24.736-13.413c-35.541-29.146-69.926-77.714-119.92-77.714
	c-50.469,0-84.381,48.568-119.922,77.714c-8.207,6.737-16.152,12.039-24.754,13.413c-8.391,0-16.527-6.676-24.734-13.413
	c-35.541-29.146-69.927-77.714-119.922-77.714c-50.467,0-84.381,48.568-119.922,77.714c-8.207,6.737-16.15,12.039-24.752,13.413
	c-8.391,0-16.529-6.676-24.736-13.413c-35.541-29.146-69.926-77.714-119.92-77.714c-50.469,0-84.381,48.568-119.922,77.714
	c-8.207,6.737-16.151,12.039-24.753,13.413c-8.391,0-16.528-6.676-24.735-13.413c-35.541-29.146-69.926-77.714-119.921-77.714
	c-50.467,0-84.38,48.568-119.921,77.714c-8.207,6.737-16.151,12.039-24.752,13.413v52.226c3.841-0.245,7.761-0.778,11.803-1.68
	c27.701-6.125,49.295-26.669,68.807-46.022c14.787-14.734,39.933-44.457,64.046-44.457c24.341,0,49.278,29.723,64.064,44.457
	c19.512,19.354,41.105,39.897,68.807,46.022c4.042,0.901,7.979,1.68,11.803,1.68c3.842-0.245,7.762-0.778,11.804-1.68
	c27.702-6.125,49.295-26.669,68.807-46.022c14.785-14.734,39.932-44.457,64.047-44.457c24.34,0,49.277,29.723,64.063,44.457
	c19.512,19.354,41.105,39.897,68.807,46.022c4.043,0.901,7.98,1.68,11.805,1.68c3.842-0.245,7.761-0.778,11.803-1.68
	c27.701-6.125,49.295-26.669,68.807-46.022c14.787-14.734,39.934-44.457,64.047-44.457c24.342,0,49.277,29.723,64.064,44.457
	c19.512,19.354,41.105,39.897,68.807,46.022c4.042,0.901,7.979,1.68,11.803,1.68c3.842-0.245,7.762-0.778,11.805-1.68
	c27.701-6.125,49.295-26.669,68.807-46.022c14.785-14.734,39.932-44.457,64.047-44.457c24.34,0,49.277,29.723,64.063,44.457
	c19.512,19.354,41.105,39.897,68.807,46.022c4.043,0.901,7.98,1.68,11.805,1.68c3.842-0.245,7.761-0.778,11.803-1.68
	c27.701-6.125,49.295-26.669,68.807-46.022c14.787-14.734,39.934-44.457,64.047-44.457c24.342,0,49.277,29.723,64.064,44.457
	c19.512,19.354,41.105,39.897,68.807,46.022c4.042,0.901,7.979,1.68,11.803,1.68c3.842-0.245,7.762-0.778,11.805-1.68
	c27.701-6.125,49.295-26.669,68.807-46.022c14.785-14.734,39.932-44.457,64.047-44.457c24.34,0,49.277,29.723,64.063,44.457
	c19.512,19.354,41.105,39.897,68.807,46.022c4.043,0.901,7.98,1.68,11.805,1.68c3.842-0.245,7.761-0.778,11.803-1.68
	c27.701-6.125,49.295-26.669,68.807-46.022c14.787-14.734,39.934-44.457,64.047-44.457c24.342,0,49.277,29.723,64.064,44.457
	c19.512,19.354,41.105,39.897,68.807,46.022c4.042,0.901,7.979,1.68,11.803,1.68c3.842-0.245,7.762-0.778,11.805-1.68
	c27.701-6.125,49.295-26.669,68.807-46.022c14.785-14.734,39.932-44.457,64.047-44.457c24.34,0,49.277,29.723,64.063,44.457
	c19.512,19.354,41.105,39.897,68.807,46.022c4.043,0.901,7.98,1.68,11.805,1.68c3.842-0.245,7.761-0.778,11.803-1.68
	c27.701-6.125,49.295-26.669,68.807-46.022c14.787-14.734,39.934-44.457,64.047-44.457c24.342,0,49.277,29.723,64.064,44.457
	c19.512,19.354,41.105,39.897,68.807,46.022c4.042,0.901,7.979,1.68,11.803,1.68c3.842-0.245,7.762-0.778,11.805-1.68
	c27.701-6.125,49.295-26.669,68.807-46.022c14.785-14.734,39.932-44.457,64.047-44.457c24.34,0,49.277,29.723,64.063,44.457
	c19.512,19.354,41.105,39.897,68.807,46.022c4.043,0.901,7.98,1.68,11.805,1.68c3.842-0.245,7.761-0.778,11.803-1.68
	c27.701-6.125,49.295-26.669,68.807-46.022c14.787-14.734,39.934-44.457,64.047-44.457c24.342,0,49.277,29.723,64.064,44.457
	c19.512,19.354,41.105,39.897,68.807,46.022c4.042,0.901,7.979,1.68,11.803,1.68c3.842-0.245,7.762-0.778,11.805-1.68
	c27.701-6.125,49.295-26.669,68.807-46.022c14.785-14.734,39.932-44.457,64.047-44.457c24.34,0,49.277,29.723,64.063,44.457
	c19.512,19.354,41.105,39.897,68.807,46.022c4.043,0.901,7.98,1.68,11.805,1.68c3.842-0.245,7.761-0.778,11.803-1.68
	c27.701-6.125,49.295-26.669,68.807-46.022c14.787-14.734,39.934-44.457,64.047-44.457c24.342,0,49.277,29.723,64.064,44.457
	c19.512,19.354,41.105,39.897,68.807,46.022c4.042,0.901,7.979,1.68,11.803,1.68c3.842-0.245,7.762-0.778,11.805-1.68
	c27.701-6.125,49.295-26.669,68.807-46.022c14.785-14.734,39.932-44.457,64.047-44.457c24.34,0,49.277,29.723,64.063,44.457
	c19.512,19.354,41.105,39.897,68.807,46.022c4.043,0.901,7.98,1.68,11.805,1.68c3.842-0.245,7.761-0.778,11.803-1.68
	c27.701-6.125,49.295-26.669,68.807-46.022c14.787-14.734,39.934-44.457,64.047-44.457c24.342,0,49.277,29.723,64.064,44.457
	c19.512,19.354,41.105,39.897,68.807,46.022c4.042,0.901,7.979,1.68,11.803,1.68c3.842-0.245,7.762-0.778,11.805-1.68
	c27.701-6.125,49.295-26.669,68.807-46.022c14.785-14.734,39.932-44.457,64.047-44.457c24.34,0,49.277,29.723,64.063,44.457
	c19.512,19.354,41.105,39.897,68.807,46.022c4.043,0.901,7.98,1.68,11.805,1.68c3.841-0.245,7.761-0.778,11.804-1.68
	c27.701-6.125,49.295-26.669,68.807-46.022c14.786-14.734,39.932-44.457,64.046-44.457c24.341,0,49.278,29.723,64.064,44.457
	c19.512,19.354,41.105,39.897,68.807,46.022c4.042,0.901,7.979,1.68,11.804,1.68c3.842-0.245,7.762-0.778,11.803-1.68
	c27.702-6.125,49.296-26.669,68.808-46.022c14.785-14.734,39.932-44.457,64.047-44.457c24.34,0,49.277,29.723,64.063,44.457
	c19.512,19.354,41.105,39.897,68.807,46.022c4.043,0.901,7.98,1.68,11.805,1.68c3.842-0.245,7.761-0.778,11.803-1.68
	c27.701-6.125,49.295-26.669,68.807-46.022c14.787-14.734,39.934-44.457,64.047-44.457c24.342,0,49.277,29.723,64.064,44.457
	c19.512,19.354,41.105,39.897,68.807,46.022c4.042,0.901,7.979,1.68,11.803,1.68c3.842-0.245,7.762-0.778,11.805-1.68
	c27.701-6.125,49.295-26.669,68.807-46.022c14.785-14.734,39.932-44.457,64.047-44.457c24.34,0,49.277,29.723,64.063,44.457
	c19.512,19.354,41.105,39.897,68.807,46.022c4.043,0.901,7.98,1.68,11.805,1.68c3.842-0.245,7.761-0.778,11.803-1.68
	c27.701-6.125,49.295-26.669,68.807-46.022c14.787-14.734,39.934-44.457,64.047-44.457c24.342,0,49.277,29.723,64.064,44.457
	c19.512,19.354,41.105,39.897,68.807,46.022c4.042,0.901,7.979,1.68,11.803,1.68c3.842-0.245,7.762-0.778,11.805-1.68
	c27.701-6.125,49.295-26.669,68.807-46.022c14.785-14.734,39.932-44.457,64.047-44.457c24.34,0,49.277,29.723,64.063,44.457
	c19.512,19.354,41.105,39.897,68.807,46.022c4.043,0.901,7.98,1.68,11.805,1.68c3.842-0.245,7.761-0.778,11.803-1.68
	c27.701-6.125,49.295-26.669,68.807-46.022c14.787-14.734,39.934-44.457,64.047-44.457c24.342,0,49.277,29.723,64.064,44.457
	c19.512,19.354,41.105,39.897,68.807,46.022c4.042,0.901,7.979,1.68,11.803,1.68c3.842-0.245,7.762-0.778,11.805-1.68
	c27.701-6.125,49.295-26.669,68.807-46.022c14.785-14.734,39.932-44.457,64.047-44.457c24.34,0,49.277,29.723,64.063,44.457
	c19.512,19.354,41.105,39.897,68.807,46.022c4.043,0.901,7.98,1.68,11.805,1.68c3.842-0.245,7.761-0.778,11.803-1.68
	c27.701-6.125,49.295-26.669,68.807-46.022c14.787-14.734,39.934-44.457,64.047-44.457c24.342,0,49.277,29.723,64.064,44.457
	c19.512,19.354,41.105,39.897,68.807,46.022c4.042,0.901,7.979,1.68,11.803,1.68c3.842-0.245,7.762-0.778,11.805-1.68
	c27.701-6.125,49.295-26.669,68.807-46.022c14.785-14.734,39.932-44.457,64.047-44.457c24.34,0,49.277,29.723,64.063,44.457
	c19.512,19.354,41.105,39.897,68.807,46.022c4.043,0.901,7.98,1.68,11.805,1.68c3.842-0.245,7.761-0.778,11.803-1.68
	c27.701-6.125,49.295-26.669,68.807-46.022c14.787-14.734,39.934-44.457,64.047-44.457c24.342,0,49.277,29.723,64.064,44.457
	c19.512,19.354,41.105,39.897,68.807,46.022c4.042,0.901,7.979,1.68,11.803,1.68c3.842-0.245,7.762-0.778,11.805-1.68
	c27.701-6.125,49.295-26.669,68.807-46.022c14.785-14.734,39.932-44.457,64.047-44.457c24.34,0,49.277,29.723,64.063,44.457
	c19.512,19.354,41.105,39.897,68.807,46.022c4.043,0.901,7.98,1.68,11.805,1.68c3.842-0.245,7.761-0.778,11.803-1.68
	c27.701-6.125,49.295-26.669,68.807-46.022c14.787-14.734,39.934-44.457,64.047-44.457c24.342,0,49.277,29.723,64.064,44.457
	c19.512,19.354,41.105,39.897,68.807,46.022c4.042,0.901,7.979,1.68,11.803,1.68c3.842-0.245,7.762-0.778,11.805-1.68
	c27.701-6.125,49.295-26.669,68.807-46.022c14.785-14.734,39.932-44.457,64.047-44.457c24.34,0,49.277,29.723,64.063,44.457
	c19.512,19.354,41.105,39.897,68.807,46.022c4.043,0.901,7.98,1.68,11.805,1.68c3.842-0.245,7.761-0.778,11.803-1.68
	c27.701-6.125,49.295-26.669,68.807-46.022c14.787-14.734,39.934-44.457,64.047-44.457c24.342,0,49.277,29.723,64.064,44.457
	c19.512,19.354,41.105,39.897,68.807,46.022c4.042,0.901,7.979,1.68,11.803,1.68c3.842-0.245,7.762-0.778,11.805-1.68
	c27.701-6.125,49.295-26.669,68.807-46.022c14.785-14.734,39.932-44.457,64.047-44.457c24.34,0,49.277,29.723,64.063,44.457
	c19.512,19.354,41.105,39.897,68.807,46.022c4.043,0.901,7.98,1.68,11.805,1.68v-52.226
	C7119.417,267.502,7111.279,260.826,7103.072,254.089z"/>
</svg>
