<?xml version="1.0" encoding="utf-8"?>
<!-- Generator: Adobe Illustrator 16.0.0, SVG Export Plug-In . SVG Version: 6.00 Build 0)  -->
<!DOCTYPE svg PUBLIC "-//W3C//DTD SVG 1.1//EN" "http://www.w3.org/Graphics/SVG/1.1/DTD/svg11.dtd">
<svg version="1.1" id="Layer_1" xmlns="http://www.w3.org/2000/svg" xmlns:xlink="http://www.w3.org/1999/xlink" x="0px" y="0px"
	 width="32px" height="32.002px" viewBox="130.836 130.844 32 32.002" enable-background="new 130.836 130.844 32 32.002"
	 xml:space="preserve">
<g>
	<path d="M156.698,151.67c-0.966,0-1.752,0.786-1.752,1.753v5.478c0,0.119-0.043,0.227-0.125,0.309
		c-0.088,0.088-0.196,0.133-0.319,0.133h-19.714c-0.242-0.001-0.442-0.198-0.445-0.434v-19.744c0-0.237,0.196-0.431,0.437-0.431
		h5.481c0.967,0,1.753-0.786,1.753-1.752c0-0.967-0.787-1.753-1.753-1.753h-5.481c-2.174,0-3.942,1.766-3.942,3.936v19.744
		c0,2.172,1.771,3.938,3.949,3.938h19.721c2.172,0,3.941-1.771,3.944-3.948v-5.476C158.451,152.456,157.665,151.67,156.698,151.67z"
		/>
	<path d="M161.083,130.844h-10.96c-0.966,0-1.752,0.786-1.752,1.752c0,0.967,0.786,1.754,1.752,1.754h6.729l-11.259,11.261
		c-0.664,0.683-0.664,1.753-0.003,2.434c0.332,0.347,0.779,0.537,1.261,0.537c0.456,0,0.889-0.175,1.226-0.5l11.255-11.253v6.727
		c0,0.967,0.786,1.754,1.752,1.754c0.967,0,1.753-0.787,1.753-1.754v-10.959C162.836,131.631,162.05,130.844,161.083,130.844z"/>
</g>
</svg>
