<svg width="19" height="19" viewBox="0 0 19 19" fill="none" xmlns="http://www.w3.org/2000/svg">
<path d="M4.69872 18.5391V6.60697H0.732737V18.5391H4.69872ZM2.71626 4.97688C4.09926 4.97688 4.96012 4.06063 4.96012 2.91564C4.93435 1.74481 4.09931 0.854004 2.74251 0.854004C1.3859 0.854004 0.498779 1.74483 0.498779 2.91564C0.498779 4.06069 1.35942 4.97688 2.69039 4.97688H2.71626Z" fill="white"/>
<path d="M6.8938 18.5394H10.8598V11.8759C10.8598 11.5193 10.8856 11.163 10.9903 10.9081C11.277 10.1956 11.9296 9.45761 13.0251 9.45761C14.4603 9.45761 15.0344 10.5518 15.0344 12.1559V18.5393H19.0001V11.6975C19.0001 8.03247 17.0435 6.32715 14.4341 6.32715C12.2946 6.32715 11.3553 7.52305 10.8334 8.33758H10.8599V6.60706H6.89389C6.94593 7.72669 6.89389 18.5392 6.89389 18.5392L6.8938 18.5394Z" fill="white"/>
</svg>
