<?xml version="1.0" encoding="utf-8"?>
<!-- Generator: Adobe Illustrator 16.0.0, SVG Export Plug-In . SVG Version: 6.00 Build 0)  -->
<!DOCTYPE svg PUBLIC "-//W3C//DTD SVG 1.1//EN" "http://www.w3.org/Graphics/SVG/1.1/DTD/svg11.dtd">
<svg version="1.1" id="Layer_1" xmlns="http://www.w3.org/2000/svg" xmlns:xlink="http://www.w3.org/1999/xlink" x="0px" y="0px"
	 width="100px" height="100px" viewBox="0 0 100 100" enable-background="new 0 0 100 100" xml:space="preserve">
<g>
	<path fill="#FFFFFF" d="M28.429,48.993h13.375v13.015c0,1.916,1.557,3.474,3.472,3.474s3.473-1.558,3.473-3.474V48.993h13.419
		c1.915,0,3.472-1.558,3.472-3.473s-1.557-3.473-3.472-3.473H48.749V28.919c0-1.914-1.558-3.472-3.473-3.472
		s-3.472,1.558-3.472,3.472v13.128H28.429c-1.915,0-3.473,1.558-3.473,3.472c0,0.931,0.36,1.804,1.014,2.458
		C26.626,48.632,27.498,48.993,28.429,48.993z"/>
	<path fill="#FFFFFF" d="M98.963,93.25L79.776,74.488c7.017-8.067,10.865-18.322,10.865-29.036c0-11.94-4.721-23.161-13.293-31.595
		C68.792,5.439,57.417,0.804,45.321,0.804c-12.098,0-23.472,4.636-32.027,13.053C4.72,22.292,0,33.512,0,45.452
		c0,11.94,4.72,23.161,13.291,31.593c8.527,8.434,19.894,13.079,32.007,13.079c10.884,0,21.311-3.813,29.516-10.765l19.309,18.859
		c0.668,0.631,1.524,0.979,2.409,0.979c0.948,0,1.856-0.386,2.479-1.046c0.648-0.666,0.999-1.544,0.988-2.471
		C99.989,94.752,99.62,93.888,98.963,93.25z M45.298,7.748c10.262,0,19.908,3.926,27.162,11.054
		c7.231,7.103,11.214,16.568,11.214,26.651c0,10.061-3.983,19.526-11.215,26.651c-7.246,7.13-16.892,11.058-27.161,11.058
		c-10.269,0-19.916-3.927-27.163-11.059C10.905,65,6.923,55.536,6.923,45.452c0-10.062,3.983-19.527,11.213-26.651
		C25.39,11.673,35.035,7.748,45.298,7.748z"/>
</g>
</svg>
